<svg width="641" height="686" viewBox="0 0 641 686" fill="none" xmlns="http://www.w3.org/2000/svg">
<path d="M294.649 204.137C342.641 204.137 383.013 236.754 394.811 281.028L449.999 465.533L401.791 480.995L368.261 380.753C349.479 399.7 323.435 411.436 294.649 411.436L293.979 411.434C237.044 411.073 191 364.807 191 307.786C191 250.542 237.406 204.137 294.649 204.137ZM294.649 258.212C267.27 258.212 245.075 280.407 245.075 307.786C245.075 335.165 267.27 357.361 294.649 357.361C322.029 357.361 344.225 335.165 344.225 307.786C344.224 280.407 322.029 258.212 294.649 258.212Z" fill="white"/>
</svg>
