<svg width="291" height="353" viewBox="0 0 291 353" fill="none" xmlns="http://www.w3.org/2000/svg">
<g clip-path="url(#clip0_1382_869)">
<rect width="290.427" height="352.662" fill="#F8F4F3"/>
<path d="M338.937 0.375122L333.337 9.60089L335.973 13.2226L352.77 15.1978L352.442 31.3384L343.22 50.772L338.609 54.0688L335.973 59.337L330.701 58.3477L323.784 66.584V80.7458L327.078 81.4066L329.713 83.7141L328.066 86.0178L336.301 91.2896L350.467 91.9468L353.431 88.9823L368.254 88.3251L378.794 108.087L381.758 107.427L382.416 110.723L386.041 113.356L381.098 113.688L380.108 116.652L375.829 118.956L374.84 131.475L372.533 130.814L370.558 135.097L377.144 139.051L368.911 139.708L366.936 141.354L363.639 140.036L331.69 147.944L317.196 160.788L314.891 165.071V175.282H310.279L309.95 189.776L318.185 210.528L330.701 219.75L342.23 225.35L358.371 230.951L359.357 223.043L361.664 218.103L359.689 217.775L361.335 214.81L366.275 217.775L365.946 223.704H361.993L360.675 230.951H370.886L375.497 225.679L380.769 222.057L390.652 223.043L396.249 214.15L395.263 208.553L396.581 207.563L393.617 199.327L399.213 196.695L403.825 208.22L415.686 200.316L411.072 188.787L407.778 189.776L406.46 184.176L435.448 171L444.671 191.094L436.434 194.059L429.191 177.261L413.379 183.847L429.848 217.114L425.237 219.75L419.637 205.256L414.697 207.892L416.261 210.281L412.307 212.01L410.825 209.292L402.674 214.482L401.932 221.397L403.414 222.386L409.839 220.411L411.072 222.386L401.439 225.104L402.921 230.29L407.614 234.737L414.036 245.609L419.226 246.845L426.144 244.866L427.623 247.584L438.249 246.349L438.988 248.077L443.931 245.856L445.164 241.162L448.871 241.409L450.353 236.962L452.328 236.219L453.564 231.033L457.268 226.586L469.869 220.657L471.105 218.186L477.034 217.446L479.256 220.657L479.009 224.611L482.22 226.093L484.692 224.611L485.681 225.843L492.35 226.093L495.068 222.632L495.811 208.553L502.972 207.563L501.986 202.127L505.443 208.306L507.915 211.021L504.454 212.01L502.725 210.035L498.032 210.281L497.786 214.728H506.679L506.926 220.164L517.794 219.668L521.502 222.386L534.099 251.785L529.653 253.513L531.631 258.207L531.135 282.169L544.229 277.973L546.947 283.652L541.757 285.38L542.254 288.841L537.31 290.324L539.782 296.499L544.722 295.51L567.452 350.353L559.298 352.332L562.759 361.226L572.392 366.658L576.592 378.763L584.743 379.259L595.369 379.752L603.026 376.788L593.39 352.825L596.354 351.096L598.58 352.082L600.555 351.343L600.308 347.142L603.026 346.403L602.283 342.449L616.86 336.027L619.824 340.72L624.517 339.238L629.211 353.318L626.246 354.554L623.035 342.449L618.342 344.178L617.352 349.118L614.388 347.885L611.177 349.86V352.082L618.835 362.954L620.071 367.401L609.941 374.566L611.177 377.281L597.837 382.717L599.072 384.942L564.487 397.293L563.745 407.422L565.97 414.337L567.452 420.266L571.156 421.009L568.688 425.702L570.909 438.053L574.617 450.161L585.486 465.723L600.062 478.321L612.906 496.108L615.131 495.862L616.613 498.58L624.517 498.826L624.764 505.498L627.728 505.252V513.156L625.26 517.603L629.707 520.074L626 521.306L628.718 524.275L626.743 526.743V542.555L624.764 541.565L625.26 566.271L628.225 571.457L629.211 577.386L628.718 581.833L625.753 586.526L620.813 589.987L618.835 595.67L620.317 600.363L617.106 601.599V612.221H614.142V616.171H617.849V618.889L613.402 618.396L614.142 623.336L609.941 626.797L608.459 626.054L604.509 635.441H601.298L598.58 646.806L598.083 651.499L598.826 654.71L606.484 660.639L605.494 663.111L603.026 665.336L599.072 666.568L599.565 670.276L596.851 669.533L598.58 674.969H-6.26562V0.0465698C-6.26562 0.0465698 338.609 0.707275 338.937 0.375122Z" fill="#F8F4F3"/>
<path d="M-5.6213 167.705L-0.351049 173.963L14.1421 166.059C14.1421 166.059 19.7418 170.998 21.3887 170.341C23.0357 169.68 32.9175 166.387 32.9175 166.387L40.1642 168.034L39.5052 178.574L40.4935 185.821L42.4697 181.21L43.1283 172.316L40.8228 164.412L51.034 157.165L67.8328 158.483L68.8211 153.543L76.0678 153.872L79.3616 158.483L82.9848 177.588L72.115 177.917L50.0457 189.118L39.5052 188.457L30.2823 189.775L31.9292 198.34L9.53064 192.739L-6.60938 183.517C-6.60938 183.517 -5.6213 166.716 -5.6213 167.705Z" fill="#CAF1D8"/>
<path d="M21.3984 261.255L21.7281 257.633H25.6806L27.3275 249.068H37.868L41.4915 258.951L38.527 304.734L24.6923 308.688L23.0454 303.748L23.7043 265.866L21.3984 261.255Z" fill="#CAF1D8"/>
<path d="M49.7256 305.071L56.6426 305.4V328.455L66.1952 328.787L66.5245 347.232H55.984L55.6547 356.454L49.3963 359.09L49.0666 353.822H39.8438V332.081L49.0666 332.409L49.7256 305.071Z" fill="#CAF1D8"/>
<path d="M63.2391 306.716L70.4858 305.07L97.1665 312.974L94.8606 319.892L99.1428 324.832L92.8844 331.418L94.5313 336.69L84.6498 340.973L84.9788 333.397L79.7087 326.807L71.8034 327.139L62.5805 319.232L59.9453 313.963L63.2391 306.716Z" fill="#CAF1D8"/>
<path d="M269.031 164.341L275.949 157.919V166.316L285.83 169.777L288.795 174.47L286.571 177.928L289.536 182.128L298.183 178.67L300.159 186.575L305.347 198.926L313.499 215.727L317.946 224.124L326.345 230.3L324.863 237.961L304.606 235.243L298.183 222.888L298.677 216.22L295.218 213.009L292.253 210.537L291.512 207.08L293.983 196.208L284.842 190.279L274.466 189.539C274.466 189.539 269.031 172.741 269.031 171.752C269.031 170.763 269.031 164.341 269.031 164.341Z" fill="#CAF1D8"/>
<path d="M612.795 371.428L618.892 366.852C619.081 366.713 619.213 366.517 619.278 366.295L619.406 367.138L612.795 371.428ZM613.891 353.926C613.809 353.791 613.698 353.673 613.559 353.583C610.813 351.815 606.073 347.59 603.623 344.968L604.326 342.393L613.213 338.407H617.631L618.792 340.493L616.884 350.658C616.863 350.776 616.859 350.898 616.881 351.019L619.138 365.417C619.038 365.267 618.899 365.142 618.731 365.056L617.045 364.213L618.217 361.87C618.381 361.538 618.363 361.148 618.17 360.834C618.17 360.834 614.002 354.105 613.891 353.926ZM607.898 374.603L589.411 381.414H589.407L608.344 374.314L607.898 374.603ZM572.82 386.608C574.417 385.547 575.949 384.522 577.406 383.536H577.871L572.82 386.608ZM542.703 421.832C542.375 422.028 542.157 422.389 542.178 422.796L542.275 424.75L541.564 418.724C541.671 418.603 541.757 418.464 541.796 418.299C541.9 417.867 541.725 417.431 541.386 417.189L541.15 415.185C541.182 415.131 541.218 415.078 541.243 415.021L546.182 403.905C546.211 403.845 546.229 403.78 546.243 403.72C546.818 403.359 547.39 402.995 547.958 402.637L542.703 421.832ZM542 436.358L542.596 431.333L542.668 432.797L542 436.358ZM519.523 472.207C519.234 472.054 518.877 472.032 518.559 472.189C517.562 472.679 516.555 473.161 515.551 473.647C515.548 473.607 515.541 473.575 515.533 473.536C517.859 472.461 519.866 471.472 521.445 470.611C520.716 471.264 520.066 471.811 519.523 472.207ZM515.566 480.422C515.519 480.544 515.498 480.669 515.498 480.797V488.173C514.737 486.766 513.98 485.323 513.219 483.851C513.223 483.848 513.223 483.844 513.226 483.84L514.991 476.275C515.873 475.85 516.748 475.425 517.623 474.997L515.566 480.422ZM502.272 482.13C503.497 481.587 504.715 481.04 505.929 480.487L510.901 483.983C511.64 485.426 512.38 486.833 513.119 488.219L502.272 482.13ZM436.688 506.035C436.266 506.196 435.841 506.357 435.416 506.517C440.949 504.203 446.924 501.681 453.311 498.977C459.854 496.206 464.583 494.202 466.054 493.641C467.822 492.941 470.244 492.002 473.098 490.891C479.541 488.387 488.449 484.926 497.078 481.419C497.171 481.612 497.314 481.776 497.511 481.887L497.536 481.901C477.727 490.548 456.957 498.392 436.688 506.035ZM391.209 531.055C391.02 531.184 390.877 531.366 390.798 531.58L388.084 539.241C388.009 539.445 388.002 539.666 388.059 539.874L400.66 585.824C400.714 586.017 400.821 586.192 400.967 586.327L407.003 591.828L401.881 589.613C398.595 580.566 395.524 569.633 391.252 554.41C389.223 547.188 386.837 538.695 384.016 528.94C392.588 525.337 401.246 521.879 409.929 518.507L391.209 531.055ZM409.046 605.707C408.725 605.122 408.414 604.536 408.103 603.947L412.239 598.435L412.429 599.453L409.046 605.707ZM461.472 672.534C443.17 654.458 430.102 639.474 420.369 625.966C427.973 635.453 438.292 646.871 453.153 663.323C455.779 666.23 458.554 669.298 461.472 672.534ZM403.217 608.429L399.538 607.565L398.167 606L397.26 603.379L404.667 607.079C404.817 607.154 404.978 607.193 405.139 607.193C405.378 607.193 405.607 607.111 405.796 606.961C405.985 607.308 406.175 607.654 406.368 608L403.217 608.429ZM397.46 589.37L395.985 596.185L395.742 585.009C396.295 586.467 396.867 587.92 397.46 589.37ZM402.91 592.371L411.389 596.032L407.032 601.843C405.55 598.835 404.203 595.724 402.91 592.371ZM404.56 604.657L397.127 600.939L398.892 592.781C400.588 596.721 402.46 600.661 404.56 604.657ZM386.416 547.849C386.441 547.596 386.373 547.349 386.219 547.135C384.698 541.695 383.112 536.041 381.362 530.069C381.59 529.973 381.819 529.873 382.048 529.776C384.837 539.42 387.198 547.828 389.209 554.985C392.727 567.508 395.434 577.148 398.11 585.231C397.231 582.959 396.399 580.68 395.599 578.38L395.577 577.369C395.567 576.937 395.299 576.569 394.924 576.412C391.913 567.508 389.327 558.261 386.48 548.074C386.459 547.999 386.437 547.924 386.416 547.849ZM375.258 536.127C374.997 535.87 374.626 535.762 374.265 535.845L361.925 538.72C367.689 536.027 373.522 533.427 379.397 530.908C380.726 535.445 381.958 539.798 383.144 544.013L375.258 536.127ZM285.96 589.024L281.638 596.532C279.942 597.125 274.136 599.16 271.504 600.157C276.036 595.378 280.764 590.842 285.672 586.527L285.96 589.024ZM227.876 642.539L218.584 641.553C219.408 641.1 220.226 640.642 221.045 640.182L226.229 641.664L228.8 635.663C229.486 635.249 230.17 634.831 230.85 634.41L227.876 642.539ZM183.97 655.665C193.41 651.493 202.796 647.061 211.929 642.257L211.769 642.778C202.653 647.514 193.253 651.847 183.793 655.894L183.97 655.665ZM168.57 672.145L168.44 670.78L173.271 662.569C174.582 662.037 175.892 661.498 177.204 660.958L168.57 672.145ZM161.604 667.205L166.272 670.38L166.481 672.566L158.923 668.248C159.815 667.902 160.709 667.555 161.604 667.205ZM161.334 647.961L163.118 653.411L158.394 664.119C157.516 664.473 156.639 664.826 155.763 665.18L161.334 647.961ZM174.189 657.587L165.015 652.39L163.785 648.629L166.05 651.179L178.693 655.654C177.192 656.304 175.691 656.951 174.189 657.587ZM175.062 659.522C176.683 658.833 178.304 658.137 179.925 657.433L179.814 657.576C178.223 658.244 176.632 658.905 175.041 659.558L175.062 659.522ZM167.865 664.741C168.591 664.451 169.319 664.158 170.046 663.866L168.098 667.18L167.865 664.741ZM165.812 665.552L166.011 667.637L163.999 666.269C164.602 666.03 165.208 665.791 165.812 665.552ZM165.287 660.04L165.404 661.262C164.006 661.837 162.61 662.408 161.217 662.976L164.105 656.426L165.287 660.04ZM167.453 660.412L167.387 659.722C167.38 659.644 167.364 659.565 167.34 659.494L165.994 655.383L171.723 658.626C170.298 659.226 168.875 659.822 167.453 660.412ZM116.394 570.769C160.165 551.114 210.244 528.126 240.608 512.207C240.672 512.171 240.733 512.132 240.79 512.086C246.368 507.478 265.514 481.955 276.954 466.703C280.144 462.449 282.671 459.081 284.065 457.285C284.093 457.256 284.125 457.224 284.153 457.195C285.575 458.688 287.002 460.163 288.442 461.617L288.488 461.571C288.941 461.996 289.819 462.635 291.402 463.785L306.688 474.904C306.812 474.993 306.955 475.058 307.106 475.086L328.846 479.369C328.913 479.383 328.982 479.386 329.051 479.386C329.085 479.386 329.12 479.386 329.154 479.383L345.952 477.736C346.009 477.729 346.066 477.718 346.123 477.704C346.506 477.604 346.891 477.497 347.273 477.397L364.107 486.826C364.271 486.919 364.45 486.962 364.625 486.962C364.689 486.962 364.753 486.951 364.818 486.937C367.747 494.759 370.293 502.035 372.551 508.864L373.676 523.115L371.943 527.237L348.291 540.445C332.615 547.678 318.287 555.353 304.522 565.29C304.482 565.215 304.453 565.136 304.394 565.072C304.003 564.636 303.333 564.6 302.897 564.993C299.493 568.047 291.86 574.93 290.364 576.526C290.349 576.541 290.333 576.551 290.318 576.566C289.151 576.934 283.182 577.359 277.871 577.566C277.482 577.584 277.15 577.812 276.978 578.148L275.619 578.084L275.302 584.724L263.262 603.922L263.364 603.986C253.85 613.147 243.081 621.244 231.553 628.531L217.334 624.598L212.807 639.385C202.634 644.814 192.117 649.779 181.541 654.415L167.272 649.361L162.131 643.578L161.411 641.375C161.386 641.3 161.354 641.228 161.314 641.164C149.632 621.562 133.638 597.025 116.394 570.769ZM109.736 560.636C85.3737 523.576 60.2345 485.33 43.5746 456.049C96.5596 422.343 152.568 385.522 204.953 350.948C205.916 352.394 206.882 353.844 207.856 355.309C231.166 390.333 255.218 426.475 282.691 455.66C282.631 455.72 282.567 455.785 282.509 455.845C282.48 455.874 282.454 455.906 282.428 455.938C281.031 457.735 278.483 461.131 275.258 465.432C264.675 479.54 245.023 505.739 239.523 510.382C209.124 526.312 158.984 549.324 115.215 568.972C113.399 566.208 111.574 563.433 109.736 560.636ZM40.5762 450.713L40.2472 268.33L41.1905 265.187C41.6487 263.658 41.9277 262.73 42.0702 262.137C48.7529 251.9 58.8726 241.457 68.6599 231.359C75.0471 224.77 81.5688 218.033 87.2271 211.272C89.1554 211.586 91.0902 211.897 93.029 212.197C110.891 214.983 127.101 216.89 141.545 217.908L142.215 233.306C142.219 233.399 142.235 233.488 142.262 233.577L147.203 249.386C147.248 249.532 147.323 249.664 147.423 249.779C149.021 251.568 163.124 267.494 167.342 275.534C170.917 284.581 178.316 306.115 181.459 316.252C181.491 316.355 181.54 316.455 181.604 316.548C188.952 327.006 196.219 337.839 203.777 349.183C151.432 383.732 95.4702 420.525 42.5285 454.202C41.8648 453.027 41.2105 451.859 40.5762 450.713ZM95.6195 200.1C98.953 197.967 108.207 193.178 112.093 191.403C112.267 191.324 112.416 191.199 112.524 191.042L113.872 189.095L141.508 202.607L141.226 210.493C141.226 210.522 141.226 210.55 141.227 210.579L141.456 215.847C128.371 214.883 111.21 212.961 88.8276 209.329C91.321 206.254 93.6204 203.171 95.6195 200.1ZM90.6445 114.007L91.2999 91.398L94.8784 70.5785C95.5717 69.3855 99.8163 62.0742 100.589 60.7455C106.808 56.5809 114.312 52.477 122.396 48.6945C128.72 62.4099 135.117 76.454 141.264 90.0051L130.57 104.16C130.461 104.303 130.391 104.474 130.366 104.653C128.494 118.061 127.221 143.824 128.385 156.935L128.406 156.932C128.516 157.36 128.996 158.2 130.373 160.611L140.269 177.93L141.883 192.128L141.591 200.289L115.093 187.334L115.489 186.763C115.588 186.616 115.651 186.452 115.67 186.281L116.659 177.716C116.691 177.434 116.609 177.148 116.431 176.926C108.985 167.69 91.3102 126.054 90.6445 114.007ZM178.247 31.0859C180.386 31.1324 185.716 31.3967 192.443 31.7253C218.817 33.0219 244.953 34.1862 249.594 33.0325C249.721 33.0004 249.839 32.9468 249.946 32.8718L266.17 21.5137C278.767 20.7637 297.357 20.703 315.119 21.3602L315.798 65.2994L305.43 81.4972C305.326 81.6615 305.269 81.8472 305.263 82.0365L304.282 114.743L299.223 124.861L292.414 130.19C287.629 122.254 282.908 114.339 279.898 109.203C279.828 109.082 279.734 108.978 279.623 108.892L247.342 84.5189C247.255 84.451 247.159 84.401 247.056 84.3653L235.857 80.4114C235.766 80.3792 235.672 80.3614 235.576 80.3542L192.096 77.3897C192.037 77.3862 191.977 77.3861 191.918 77.3932L165.567 80.0257C165.473 80.0364 165.38 80.0578 165.291 80.0936L142.996 88.6942C136.909 75.2717 130.579 61.3813 124.321 47.8052C142.218 39.6367 162.64 33.1254 178.247 31.0859ZM303.472 152.153L304.912 153.01C309.858 155.96 310.496 156.339 314.354 161.618L309.282 175.248C309.249 175.333 309.229 175.426 309.22 175.519L307.902 189.685C307.886 189.863 307.915 190.042 307.987 190.206L317.21 211.286C317.29 211.468 317.419 211.626 317.584 211.74L332.076 221.619C332.133 221.659 332.194 221.691 332.254 221.716L353.667 230.941C353.774 230.988 353.892 231.016 354.013 231.024L373.447 232.342C373.518 232.349 373.59 232.345 373.665 232.334L394.792 229.409L401.489 232.149C402.831 234.038 411.304 245.975 412.114 247.125C412.643 248.382 413.097 251.111 413.49 254.679C410.107 254.861 407.085 255.033 404.685 255.172L403.103 255.261C402.521 255.293 402.074 255.793 402.106 256.379C402.139 256.961 402.646 257.408 403.224 257.376L404.807 257.286C407.228 257.151 410.282 256.976 413.704 256.79C414.622 266.344 415.168 280.306 415.518 289.153C415.675 293.186 415.804 296.422 415.918 298.208C414.29 300.804 412.986 302.969 411.932 304.715C410.936 306.373 410.114 307.733 409.357 308.908C409.3 308.962 409.246 309.019 409.2 309.087C409.15 309.162 409.118 309.241 409.086 309.319C405.907 314.159 403.624 315.827 393.334 322.699L378.808 326.571L331.661 327.063L316.18 322.71L302.124 312.53C301.232 311.394 294.032 302.211 288.598 295.286C288.62 295.054 288.571 294.814 288.433 294.604C288.26 294.339 287.99 294.182 287.701 294.139C285.109 290.836 283.065 288.228 282.57 287.6C275.949 267.126 272.497 253.854 272.305 248.143L274.762 231.438C274.803 231.159 274.731 230.874 274.562 230.649C274.393 230.424 274.141 230.274 273.861 230.234C272.937 230.102 185.979 217.805 176.824 216.512C173.662 196.356 164.195 144.634 161.113 128.805C161.097 128.722 161.072 128.644 161.038 128.569L155.413 116.129C151.739 107.999 147.862 99.4236 143.873 90.6265L165.921 82.1223L192.041 79.5114L235.288 82.458L246.196 86.3083L278.176 110.457C284.124 120.6 296.504 141.188 303.117 151.803C303.206 151.946 303.327 152.064 303.472 152.153ZM456.161 255.386C458 256.711 469.09 264.708 470.008 265.369C476.148 271.295 481.531 277.963 486.345 285.164V294.032C486.345 294.386 486.52 294.714 486.813 294.911L495.6 300.843C501.318 311.741 506.186 323.388 510.697 335.236C509.929 339.118 509.022 343.247 508.733 343.883C508.483 344.293 508.544 344.822 508.879 345.172L517.648 354.155C517.98 355.08 518.309 356.005 518.641 356.927C523.416 370.224 527.938 382.797 533.11 394.569C532.985 394.69 532.885 394.844 532.831 395.022L527.577 412.935C524.095 415.113 520.634 417.271 517.248 419.385C507.583 425.418 498.446 431.118 491.081 435.797C469.905 387.497 445.892 333.164 411.554 309.408C412.211 308.362 412.922 307.187 413.747 305.812C414.84 304.004 416.193 301.754 417.897 299.043C418.015 298.854 418.072 298.629 418.054 298.404C417.94 296.747 417.804 293.357 417.636 289.071C417.161 277.052 416.633 265.069 415.829 256.676C429.68 255.936 448.296 255.065 456.161 255.386ZM493.428 296.818L488.467 293.468V288.432C490.192 291.164 491.842 293.961 493.428 296.818ZM522.677 340.354L519.155 352.087C517.298 346.926 515.419 341.75 513.48 336.6L522.677 340.354ZM512.105 338.968C513.394 342.418 514.658 345.879 515.912 349.34L510.862 344.165C511.208 343.054 511.655 341.097 512.105 338.968ZM540.514 411.435L539.425 408.013C540.635 407.252 541.846 406.491 543.05 405.734L540.514 411.435ZM534.092 398.266L534.456 399.409L531.863 410.252C531.335 410.584 530.81 410.913 530.285 411.242L534.092 398.266ZM537.239 401.152L542.618 403.498C541.339 404.305 540.05 405.116 538.76 405.927L537.239 401.152ZM534.428 408.649L535.703 403.316L536.907 407.091C536.082 407.609 535.253 408.127 534.428 408.649ZM535.185 410.674C535.982 410.177 536.774 409.677 537.571 409.177L538.635 412.513L535.185 410.674ZM533.113 411.974L539.007 415.117L539.178 416.578L529.485 414.242C530.692 413.488 531.903 412.731 533.113 411.974ZM518.191 469.918L503.797 462.239C503.747 462.214 503.693 462.196 503.643 462.174C503.529 461.846 503.261 461.578 502.897 461.489C502.754 461.453 502.607 461.449 502.468 461.471C499.018 453.884 495.518 445.912 491.939 437.751C491.96 437.737 491.989 437.733 492.01 437.722C499.404 433.022 508.615 427.272 518.373 421.182C521.202 419.417 524.084 417.617 526.992 415.803C527.049 415.828 527.113 415.853 527.177 415.867L539.443 418.821L540.689 429.411L538.992 443.698L533.699 455.245L521.57 468.107C520.662 468.643 519.516 469.254 518.191 469.918ZM513.665 472.068L505.776 467.839C505.64 467.768 505.497 467.732 505.347 467.721C504.886 466.732 504.425 465.735 503.961 464.732L515.83 471.061C515.141 471.386 514.419 471.722 513.665 472.068ZM509.529 476.504C509.49 476.426 509.451 476.347 509.415 476.268C510.729 475.697 511.997 475.14 513.205 474.6L513.158 474.797C511.955 475.372 510.744 475.94 509.529 476.504ZM510.469 478.404C511.162 478.083 511.851 477.754 512.544 477.429L511.726 480.926C511.308 480.094 510.887 479.254 510.469 478.404ZM508.544 479.294C508.651 479.519 508.761 479.744 508.872 479.965L508.165 479.469C508.29 479.411 508.415 479.354 508.544 479.294ZM505.808 477.808C506.365 477.572 506.919 477.34 507.465 477.108C507.511 477.201 507.558 477.297 507.604 477.393C507.122 477.615 506.64 477.833 506.158 478.054L505.808 477.808ZM503.5 478.779L503.922 479.076C502.611 479.665 501.289 480.251 499.968 480.837L499.354 480.49C500.754 479.919 502.14 479.347 503.5 478.779ZM506.786 470.786L511.222 473.165C510.34 473.554 509.429 473.954 508.49 474.357C507.922 473.182 507.354 471.993 506.786 470.786ZM506.54 475.197C505.936 475.454 505.322 475.715 504.7 475.979L505.422 472.857C505.793 473.643 506.168 474.422 506.54 475.197ZM502.632 466.914C503.075 467.875 503.518 468.818 503.958 469.761L502.293 476.986C501.49 477.318 500.682 477.654 499.864 477.99L502.632 466.914ZM352.249 540.974C352.413 540.902 352.574 540.827 352.735 540.756C352.602 540.82 352.467 540.888 352.331 540.956L352.249 540.974ZM348.027 543.024C348.027 543.031 348.027 543.038 348.027 543.045C348.031 543.063 348.038 543.074 348.041 543.088C347.552 543.334 347.063 543.585 346.573 543.835L348.027 543.024ZM383.012 525.487C382.43 523.486 381.83 521.436 381.208 519.336C382.848 520.118 385.223 521.129 388.352 522.419C388.727 522.576 389.059 522.711 389.359 522.836C387.22 523.729 385.102 524.615 383.012 525.487ZM374.526 506.935C376.083 510.96 377.447 514.661 378.437 517.44C379.344 520.501 380.212 523.454 381.04 526.308C380.808 526.408 380.573 526.505 380.34 526.605C378.633 520.876 376.765 514.854 374.644 508.439L374.526 506.935ZM353.385 475.736C355.11 477.393 357.956 480.054 360.703 482.49L350.199 476.604C351.252 476.318 352.313 476.029 353.385 475.736ZM323.975 417.046C327.085 419.514 330.23 422.096 333.279 424.761L331.304 428.961C331.111 429.365 331.197 429.847 331.511 430.161L333.983 432.633C334.187 432.836 334.455 432.943 334.733 432.943C334.851 432.943 334.969 432.926 335.083 432.883L340.023 431.154C340.066 431.14 340.101 431.122 340.141 431.1C345.27 436.151 349.745 441.391 352.77 446.627C353.438 448.973 354.481 452.481 355.628 456.327L355.21 462.992L347.191 475.022C347.141 475.097 347.106 475.172 347.077 475.254C346.606 475.379 346.13 475.508 345.659 475.633L329.103 477.258L307.746 473.05C305.891 471.704 291.011 460.878 289.888 460.063C288.462 458.624 287.048 457.16 285.641 455.681C295.817 445.334 315.417 425.561 323.975 417.046ZM228.669 335.286C233.685 331.975 238.632 328.706 243.524 325.478C247.168 331.267 250.772 336.711 254.367 341.647C257.228 345.115 267.085 352.276 272.974 356.559C274.043 357.334 274.966 358.005 275.673 358.53C281.73 366.674 302.487 395.973 309.408 405.813C309.471 405.902 309.547 405.981 309.634 406.048L311.47 407.438L314.923 422.728C314.945 422.825 314.988 422.91 315.033 422.993C305.382 432.676 292.014 446.177 284.178 454.145C256.85 425.096 232.865 389.061 209.621 354.134C208.649 352.673 207.684 351.223 206.722 349.78C214.118 344.897 221.441 340.061 228.669 335.286ZM174.993 218.548C175.119 219.373 175.232 220.133 175.328 220.812C175.347 220.944 175.391 221.073 175.457 221.187L181.133 231.116C181.261 231.341 181.398 231.581 181.567 231.766L181.553 231.781C197.81 248.264 212.913 273.97 227.519 298.829C232.607 307.487 237.541 315.884 242.398 323.677C237.492 326.917 232.531 330.196 227.5 333.518C220.27 338.293 212.944 343.133 205.547 348.015C198.012 336.707 190.766 325.903 183.434 315.466C180.248 305.208 172.858 283.714 169.293 274.702C169.279 274.67 169.264 274.638 169.247 274.602C165.054 266.566 151.366 251.022 149.159 248.536L144.327 233.077L143.674 218.055C155.317 218.812 165.772 218.976 174.993 218.548ZM364.639 479.665L367.825 471.7C368.518 471.504 369.214 471.304 369.915 471.107L366.589 483.18C365.907 481.858 365.253 480.672 364.639 479.665ZM357.439 474.615L362.117 479.297C362.064 479.504 362.071 479.729 362.153 479.947C362.353 480.454 362.543 480.954 362.735 481.458C360.271 479.286 357.617 476.829 355.767 475.079C356.324 474.925 356.878 474.772 357.439 474.615ZM357.26 463.985C357.271 463.932 357.281 463.875 357.285 463.817L357.292 463.696L357.66 463.142C358.089 464.589 358.521 466.035 358.939 467.457L356.896 472.568C356.328 472.725 355.763 472.879 355.203 473.036L357.26 463.985ZM357.767 456.085L357.778 455.913C357.796 455.602 357.678 455.317 357.478 455.109C356.388 451.456 355.41 448.159 354.785 445.948C355.531 447.173 356.181 448.37 356.692 449.498L358.41 458.242C358.403 458.21 358.392 458.178 358.382 458.145C358.174 457.453 357.971 456.763 357.767 456.085ZM367.375 469.621L360.821 466.346C360.725 466.014 360.625 465.678 360.525 465.342L368.954 469.175C368.425 469.325 367.9 469.475 367.375 469.621ZM363.707 476.283C363.432 475.304 363.132 474.243 362.803 473.118C363.618 472.89 364.432 472.657 365.25 472.429L363.707 476.283ZM360.764 473.69C360.939 474.297 361.107 474.879 361.267 475.447L359.782 473.965C360.11 473.872 360.435 473.782 360.764 473.69ZM360.171 471.654C359.935 471.718 359.699 471.786 359.464 471.85L359.907 470.743C359.996 471.05 360.085 471.354 360.171 471.654ZM361.642 469.128L364.346 470.479C363.632 470.682 362.921 470.882 362.214 471.079C362.028 470.443 361.839 469.789 361.642 469.128ZM334.933 426.229C336.126 427.293 337.298 428.372 338.444 429.461L335.012 430.661L333.54 429.19L334.933 426.229ZM323.234 413.763C322.514 413.199 321.8 412.645 321.09 412.095L323.957 411.952L323.234 413.763ZM339.116 420.91L339.801 425.871L333.115 420.16L339.116 420.91ZM319.999 418.017L318.424 412.72C319.698 413.699 320.993 414.699 322.299 415.724C321.599 416.421 320.829 417.189 319.999 418.017ZM316.765 421.253L314.092 409.42C314.604 409.809 315.121 410.199 315.644 410.599C315.639 410.71 315.648 410.827 315.682 410.942L318.294 419.725C317.799 420.217 317.289 420.728 316.765 421.253ZM350.138 474.425L354.045 468.564L352.885 473.675C351.963 473.925 351.049 474.175 350.138 474.425ZM300.548 313.955C300.609 314.034 300.68 314.102 300.76 314.162L315.089 324.538C315.19 324.61 315.303 324.663 315.423 324.699L331.233 329.146C331.333 329.174 331.433 329.192 331.533 329.185L378.965 328.692C379.051 328.689 379.14 328.678 379.226 328.656L394.049 324.703C394.163 324.674 394.27 324.624 394.367 324.56C404.625 317.713 407.293 315.738 410.396 311.184C444.131 334.56 467.969 388.358 488.985 436.29C461.261 442.487 428.141 452.077 396.07 461.367C387.834 463.753 379.808 466.075 372.072 468.286C372.04 468.268 372.015 468.239 371.983 468.221L361.607 463.507L358.749 448.97C358.732 448.895 358.71 448.82 358.678 448.745C355.663 441.948 347.959 433.079 342.155 427.425L341.219 420.621C341.166 420.25 340.927 419.953 340.605 419.807L340.712 418.974L333.151 418.028L326.814 411.992L329.714 404.259L329.371 404.127L329.706 403.291C329.923 402.748 329.659 402.13 329.115 401.912C328.572 401.694 327.955 401.959 327.737 402.502L324.823 409.788L319.116 410.074L319.142 410.599C317.191 409.106 315.29 407.666 313.479 406.298L311.047 404.455C303.991 394.43 283.198 365.081 277.28 357.137C277.218 357.055 277.145 356.98 277.062 356.919C276.336 356.38 275.36 355.669 274.221 354.844C268.794 350.898 258.692 343.558 256.042 340.347C252.489 335.468 248.914 330.067 245.293 324.31C259.607 314.859 273.446 305.73 287.069 296.772L300.548 313.955ZM280.52 288.15C280.548 288.457 280.843 288.832 281.634 289.843L285.755 295.097C272.193 304.015 258.416 313.105 244.167 322.51C239.338 314.755 234.419 306.387 229.347 297.754C214.705 272.834 199.565 247.064 183.159 230.391C182.563 229.348 178.125 221.58 177.399 220.312C177.327 219.812 177.248 219.273 177.161 218.701L272.509 232.184L270.194 247.928C270.185 247.989 270.181 248.05 270.183 248.114C270.346 253.965 273.823 267.434 280.52 288.15ZM143.644 202.228C143.68 202.082 143.683 201.935 143.659 201.793L144.005 192.124C144.006 192.07 144.005 192.02 143.998 191.967L142.351 177.473C142.335 177.33 142.29 177.191 142.218 177.066C142.108 176.873 131.681 158.628 130.477 156.518C129.368 143.559 130.603 118.511 132.429 105.217L142.26 92.2052C146.137 100.756 149.905 109.092 153.48 117L159.055 129.33C162.141 145.192 171.462 196.121 174.668 216.447C169.108 216.726 159.533 217.087 143.585 215.997L143.347 210.529L143.644 202.228ZM371.822 500.102C372.279 501.228 372.729 502.349 373.168 503.46C373.104 503.467 373.043 503.478 372.986 503.492C372.608 502.374 372.218 501.245 371.822 500.102ZM375.369 517.6C376.429 520.979 377.426 524.247 378.372 527.426C375.054 528.812 371.804 530.173 368.611 531.523L373.293 528.908C373.501 528.794 373.665 528.612 373.754 528.394L375.733 523.701C375.797 523.544 375.826 523.376 375.811 523.204L375.369 517.6ZM287.189 582.234C288.645 580.888 290.105 579.584 291.568 578.309C291.679 578.237 291.745 578.173 291.794 578.112C308.56 563.54 325.803 553.442 345.048 544.31C345.148 544.342 345.252 544.36 345.355 544.36C345.445 544.36 345.53 544.349 345.616 544.327C324.701 555.039 304.92 567.365 287.261 582.37C287.238 582.323 287.218 582.277 287.189 582.234ZM285.374 583.941L285.378 583.984C285.189 584.149 284.997 584.309 284.809 584.474C284.997 584.291 285.186 584.12 285.374 583.941ZM285.264 581.116L282.03 579.502C284.352 579.377 286.111 579.245 287.449 579.109C286.72 579.77 285.992 580.441 285.264 581.116ZM277.394 585.377L277.665 579.687L283.618 582.666C279.325 586.749 275.048 591.156 270.761 595.957L277.394 585.377ZM234.297 629.291C240.287 625.441 246.071 621.369 251.574 617.033C246.25 621.437 240.612 625.552 234.735 629.409L234.297 629.291ZM224.63 632.752C223.332 633.52 222.027 634.278 220.714 635.024L221.703 631.352L224.63 632.752ZM220.318 628.341L218.126 636.485C217.239 636.978 216.354 637.474 215.461 637.96L218.758 627.191L229.102 630.052C228.343 630.52 227.584 630.988 226.819 631.449L220.318 628.341ZM214.495 641.117L214.578 640.846C215.591 640.299 216.602 639.753 217.608 639.199L218.167 639.36C217.067 639.964 215.961 640.564 214.851 641.153L214.495 641.117ZM225.699 637.517L225.015 639.114L223.632 638.717C224.323 638.321 225.012 637.921 225.699 637.517ZM220.778 637.903L220.229 637.746C222.485 636.474 224.717 635.174 226.93 633.853L227.211 633.988L227.121 634.199C225.029 635.46 222.916 636.696 220.778 637.903ZM229.517 632.742L229.109 632.545C230.041 631.977 230.967 631.402 231.889 630.824L232.137 630.892L232.039 631.159C231.203 631.692 230.361 632.217 229.517 632.742ZM472.33 488.916C469.469 490.027 467.047 490.97 465.287 491.666C463.79 492.234 459.047 494.245 452.486 497.024C435.302 504.303 395.331 521.233 391.063 521.254C390.652 521.076 389.98 520.797 389.163 520.461C387.03 519.579 381.551 517.318 380.348 516.479C377.683 509.028 372.479 495.388 368.004 486.037L372.3 470.425C380.151 468.186 388.295 465.825 396.66 463.403C428.855 454.077 462.111 444.448 489.849 438.269C493.717 447.091 497.493 455.695 501.218 463.839L497.428 478.99C488.471 482.64 479.056 486.301 472.33 488.916ZM547.732 400.13L572.852 381.861L576.535 381.564C576.521 381.575 576.503 381.586 576.488 381.596C567.913 387.411 556.676 394.626 544.789 402.13L536.382 398.466L535.86 396.833L546.79 400.284C547.107 400.387 547.461 400.33 547.732 400.13ZM580.699 381.232L582.7 381.414H578.428L580.699 381.232ZM621.61 367.488L619.003 350.869L620.946 340.507C620.992 340.265 620.949 340.015 620.831 339.797L619.181 336.832C618.995 336.496 618.642 336.289 618.256 336.289H612.984C612.838 336.289 612.688 336.321 612.552 336.382L603.001 340.665C602.708 340.793 602.494 341.047 602.412 341.35L601.423 344.976C601.33 345.322 601.415 345.694 601.658 345.961C604.008 348.583 609.212 353.266 612.266 355.273C612.709 356.044 613.727 357.687 616.056 361.448L614.674 364.213C614.413 364.738 614.624 365.374 615.149 365.638L616.249 366.188L608.52 371.981L587.807 379.75L580.799 379.114C580.742 379.107 580.682 379.107 580.621 379.111L572.385 379.771C572.192 379.786 572.006 379.857 571.849 379.971L546.915 398.101L535.367 394.455C530.092 382.543 525.499 369.745 520.637 356.212C520.527 355.898 520.412 355.584 520.298 355.269C520.405 355.151 520.491 355.019 520.537 354.862L524.773 340.743C524.813 340.732 524.852 340.725 524.888 340.707L531.063 337.989C531.599 337.754 531.846 337.129 531.61 336.593C531.374 336.057 530.753 335.811 530.21 336.05L524.209 338.689L512.455 333.893C508.172 322.677 503.557 311.641 498.196 301.24C498.479 300.758 498.346 300.14 497.882 299.826L497.232 299.386C494.521 294.25 491.614 289.278 488.467 284.528V283.906C488.467 283.317 487.992 282.846 487.406 282.846C487.385 282.846 487.363 282.849 487.342 282.853C482.631 275.949 477.384 269.53 471.423 263.79L471.394 263.819C471.058 263.512 470.394 263.033 469.094 262.098L457.147 253.483C456.979 253.361 456.782 253.293 456.575 253.283C448.792 252.915 429.705 253.808 415.611 254.565C415.168 250.55 414.647 247.586 414.011 246.168L413.972 246.189C413.74 245.746 413.222 245.018 412.211 243.592L403.039 230.67C402.924 230.506 402.764 230.377 402.578 230.302L395.331 227.338C395.159 227.266 394.97 227.245 394.784 227.27L373.483 230.22L354.338 228.92L333.187 219.812L319.03 210.158L310.039 189.606L311.318 175.855L316.54 161.822C316.663 161.489 316.612 161.118 316.403 160.829C311.988 154.76 311.306 154.353 305.997 151.189L304.781 150.464C301.797 145.67 297.681 138.916 293.517 132.019L300.718 126.383C300.842 126.286 300.943 126.165 301.013 126.022L306.283 115.482C306.352 115.346 306.39 115.196 306.395 115.039L307.374 82.3937L317.756 66.171C317.869 65.996 317.927 65.7924 317.924 65.5852L317.241 21.4423C330.184 21.9602 342.537 22.864 351.627 24.1605C352.213 24.2426 352.745 23.839 352.827 23.2603C352.91 22.6782 352.506 22.1424 351.927 22.0602C342.752 20.753 330.271 19.8422 317.208 19.3208L316.935 1.68359C316.926 1.10144 316.454 0.637085 315.876 0.637085C315.87 0.637085 315.865 0.637085 315.859 0.637085C315.273 0.647766 314.806 1.13 314.815 1.71576L315.086 19.2386C297.136 18.5778 278.368 18.6457 265.743 19.4172C265.548 19.4279 265.36 19.4922 265.2 19.6065L248.9 31.0145C243.582 32.1146 211.692 30.5467 192.547 29.6073C185.719 29.2716 180.326 29.0073 178.21 28.968C178.16 28.9644 178.105 28.968 178.053 28.9751C162.256 31.0253 141.566 37.6151 123.436 45.8871C116.164 30.1287 109.012 14.8561 102.479 1.31934C102.224 0.794312 101.59 0.572815 101.063 0.826416C100.536 1.08002 100.315 1.71576 100.569 2.24078C107.096 15.7669 114.243 31.0289 121.511 46.773C113.318 50.6054 105.712 54.7629 99.4113 58.9811C99.1016 59.0847 98.8762 59.474 97.9515 61.0634L92.9486 69.6783C92.8857 69.7891 92.8422 69.907 92.8207 70.032L89.1972 91.1123C89.189 91.1623 89.184 91.2123 89.1826 91.2623L88.5236 113.989C88.5229 114.018 88.5232 114.046 88.5247 114.075C89.1747 126.512 106.569 167.611 114.502 177.905L113.594 185.773L113.137 186.434C112.689 186.363 112.228 186.581 112.018 187.009C111.857 187.338 111.882 187.706 112.05 188.002L110.946 189.599C106.783 191.524 97.5386 196.31 94.2737 198.446C94.1498 198.528 94.0441 198.632 93.9637 198.757C91.7785 202.135 89.214 205.536 86.4131 208.936C66.1532 205.593 41.7216 200.871 12.2721 194.224L-5.35162 182.477C-5.83952 182.152 -6.49736 182.284 -6.82174 182.77C-7.14655 183.255 -7.01497 183.916 -6.52779 184.241L11.2591 196.099C11.367 196.171 11.487 196.221 11.6138 196.249C29.8446 200.364 56.5542 206.186 84.7933 210.872C79.3711 217.258 73.1931 223.634 67.1372 229.884C57.2707 240.064 47.0685 250.589 40.2743 261.008C40.2136 261.101 40.1697 261.201 40.1408 261.305C40.0368 261.655 38.1713 267.873 38.1713 267.873C38.1413 267.969 38.126 268.073 38.1263 268.177L38.456 450.991C38.4563 451.17 38.5017 451.345 38.5885 451.502C39.2846 452.759 40.005 454.045 40.7369 455.342C24.6434 465.571 8.83313 475.511 -6.49779 485.001C-6.99543 485.308 -7.14934 485.962 -6.84114 486.462C-6.64065 486.787 -6.29366 486.962 -5.93856 486.962C-5.74812 486.962 -5.55546 486.912 -5.38163 486.805C9.92726 477.329 25.7139 467.403 41.782 457.188C58.4769 486.519 83.6093 524.751 107.964 561.8C109.739 564.5 111.501 567.183 113.255 569.851C93.3618 578.777 74.8768 586.97 60.2888 593.435L59.8384 593.635L59.8459 593.649C59.2898 593.753 58.4594 593.953 57.185 594.267L-5.86266 609.711C-6.4315 609.851 -6.77945 610.426 -6.64023 610.994C-6.5215 611.479 -6.08843 611.804 -5.61114 611.804C-5.52757 611.804 -5.4426 611.794 -5.35805 611.772C-4.70243 611.611 60.2017 595.71 60.5171 595.635C60.5785 595.617 60.6396 595.599 60.6978 595.571L61.1482 595.374C75.8147 588.874 94.418 580.627 114.435 571.647C131.706 597.946 147.736 622.53 159.432 642.146L160.214 644.536L153.202 666.209C148.942 667.912 144.716 669.588 140.544 671.241L134.236 673.741C133.692 673.959 133.427 674.574 133.643 675.116C133.808 675.534 134.206 675.788 134.628 675.788C134.758 675.788 134.891 675.763 135.019 675.713L138.038 674.516C137.999 674.706 138.009 674.909 138.084 675.106C138.246 675.527 138.648 675.788 139.075 675.788C139.201 675.788 139.329 675.767 139.454 675.717L144.544 673.77C148.444 672.281 152.394 670.773 156.376 669.234L168.254 676.024L181.151 659.315C192.702 654.461 204.218 649.214 215.286 643.332L229.298 644.825L233.781 632.57C244.513 625.691 254.517 618.012 263.342 609.272C263.365 609.251 263.387 609.229 263.408 609.204C265.477 606.743 267.612 604.364 269.779 602.021C269.787 602.039 269.791 602.057 269.8 602.075C269.986 602.446 270.36 602.661 270.749 602.661C270.909 602.661 271.07 602.625 271.223 602.55C271.898 602.211 278.626 599.828 282.709 598.403C282.949 598.321 283.151 598.153 283.278 597.932L287.972 589.778C288.086 589.581 288.133 589.352 288.107 589.127L287.615 584.863C307.193 568.033 329.477 554.56 353.07 542.959L374.172 538.045L384.309 548.178C384.351 548.331 384.394 548.488 384.437 548.646C387.473 559.511 390.216 569.319 393.488 578.777L393.952 600.143C393.956 600.253 393.974 600.361 394.009 600.468L396.235 606.89C396.277 607.018 396.349 607.14 396.438 607.24L398.167 609.218C398.313 609.383 398.506 609.501 398.72 609.551L402.921 610.54C403.003 610.558 403.082 610.568 403.164 610.568C403.21 610.568 403.26 610.565 403.307 610.558L407.489 609.99C418.193 628.699 434.448 649.086 462.454 676.474C462.661 676.674 462.929 676.777 463.197 676.777C463.472 676.777 463.747 676.67 463.954 676.456C464.279 676.124 464.329 675.638 464.133 675.245C464.229 675.274 464.329 675.292 464.429 675.292C464.683 675.292 464.937 675.202 465.14 675.02C465.576 674.627 465.612 673.959 465.219 673.524C461.49 669.384 457.997 665.519 454.729 661.901C430.284 634.849 418.211 621.487 410.282 607.883L414.472 600.128C414.59 599.918 414.625 599.671 414.582 599.432L413.961 596.114C414.097 595.874 414.143 595.589 414.072 595.317C413.986 595.003 413.765 594.746 413.465 594.617L412.986 594.41L402.624 584.966L390.191 539.634L392.681 532.623L414.129 518.24C414.618 517.915 414.747 517.257 414.422 516.772C414.418 516.768 414.418 516.768 414.418 516.768C422.094 513.811 429.78 510.907 437.438 508.021C458.232 500.174 479.563 492.127 499.857 483.205L515.019 491.716C515.194 492.037 515.373 492.366 515.551 492.68C515.676 492.909 515.88 493.063 516.109 493.148C524.238 509.45 533.638 529.358 543.586 550.421C557.53 579.952 571.949 610.486 583.757 632.892C585.368 637.946 587.85 648.236 588.129 653.047C588.129 653.05 588.129 653.05 588.129 653.054C588.136 653.204 588.568 660.976 588.618 661.858L587.389 674.377C587.332 674.959 587.761 675.477 588.343 675.534C588.379 675.538 588.414 675.542 588.446 675.542C588.986 675.542 589.447 675.131 589.5 674.584L590.736 661.983C590.743 661.93 590.743 661.876 590.74 661.823L590.322 654.318C590.289 653.733 590.264 653.276 590.214 652.929L590.243 652.925C589.932 647.468 587.193 636.671 585.75 632.16C585.732 632.099 585.707 632.042 585.678 631.988C573.881 609.615 559.455 579.062 545.504 549.517C535.474 528.28 525.999 508.21 517.816 491.816C517.923 491.473 517.844 491.098 517.616 490.827V480.99L520.134 474.357C523.02 472.536 529.177 466.039 534.767 460.038C535.749 458.985 536.557 458.117 537.085 457.57C537.171 457.478 537.246 457.37 537.296 457.253L542.482 445.148C542.514 445.077 542.536 445.002 542.55 444.927L544.775 433.068C544.789 432.986 544.793 432.904 544.789 432.818L544.339 423.611C544.414 423.507 544.471 423.396 544.507 423.271L550.079 402.927L579.071 385.286L591.329 386.25C591.461 386.261 591.597 386.247 591.725 386.204L602.101 382.993C602.658 382.822 602.973 382.225 602.798 381.668C602.626 381.107 602.03 380.796 601.472 380.968L591.29 384.122L583.839 383.536H589.6C589.725 383.536 589.85 383.514 589.964 383.468L608.741 376.553C608.816 376.525 608.884 376.489 608.952 376.446L621.138 368.542C621.488 368.313 621.674 367.902 621.61 367.488Z" fill="white"/>
<path d="M366.302 356.719C354.719 357.226 342.343 357.479 330.219 357.358L330.742 327.241L336.331 307.433L349.365 309.39C349.4 309.393 349.436 309.397 349.472 309.397C349.5 309.397 349.533 309.393 349.561 309.39L357.197 308.393L370.631 305.443H370.838L371.163 327.427C371.056 328.288 370.599 330.774 370.023 333.906C368.173 344.003 366.852 351.715 366.302 356.719ZM342.193 286.677L362.284 287.656C362.337 287.656 362.391 287.656 362.448 287.645L371.338 285.999C371.395 285.988 371.449 285.97 371.499 285.949C372.399 285.545 373.795 284.638 375.445 283.452C379.946 287.274 385.303 291.567 391.014 296.035C389.361 298.232 386.018 302.679 384.46 304.032H370.552C370.502 304.032 370.452 304.036 370.402 304.047L356.955 307L349.479 307.975L336.721 306.065L342.193 286.677ZM335.342 284.927C335.256 284.924 335.167 284.934 335.085 284.963L327.378 287.531C326.418 287.277 322.354 286.209 321.487 285.981C316.065 281.155 315.928 280.866 312.978 274.68L312.937 274.594C319.114 269.594 325.066 265.058 329.429 262.272C329.466 262.336 329.51 262.393 329.565 262.443L336.153 268.372C336.196 268.412 336.246 268.444 336.296 268.472L341.771 271.355L340.925 285.199L335.342 284.927ZM308.64 260.7L305.598 247.978C305.327 246.846 305.161 246.153 305.028 245.731H305.049L304.977 244.62C304.74 240.977 304.578 238.552 304.308 236.627L325.071 238.977C325.124 239.284 325.363 239.531 325.683 239.563L326.715 239.666L327.355 254.7C327.357 254.753 327.365 254.803 327.379 254.857L329.016 260.861C324.791 263.518 319.001 267.901 312.939 272.78L313.269 271.294C313.302 271.144 313.287 270.987 313.224 270.848L308.64 260.7ZM300.127 225.776C299.615 224.787 299.038 223.672 298.387 222.397C298.325 222.279 298.23 222.176 298.113 222.108L290.317 217.561L282.883 208.51L276.648 194.484C284.455 191.523 293.16 188.609 299.583 186.623L309.294 209.489C309.304 209.514 309.315 209.535 309.326 209.557L317.561 224.379C317.617 224.479 317.696 224.565 317.792 224.629L325.383 229.591C325.382 229.598 325.378 229.605 325.378 229.612L325.094 237.559L304.064 235.177C303.489 232.302 302.469 230.298 300.127 225.776ZM275.836 231.98L277.046 223.812C277.071 223.64 277.033 223.469 276.939 223.322C275.093 220.479 273.001 217.407 270.786 214.154C267.943 209.982 264.885 205.492 261.934 200.863C265.155 199.106 269.976 197.049 275.326 194.988L281.63 209.171C281.655 209.232 281.689 209.285 281.729 209.335L289.305 218.558C289.359 218.622 289.423 218.675 289.495 218.718L297.222 223.226C297.836 224.426 298.383 225.483 298.872 226.426C301.018 230.569 302.014 232.498 302.583 235.009L275.836 231.98ZM247.395 169.879C247.384 169.825 247.367 169.775 247.346 169.725C247.286 169.593 241.149 155.86 240.487 154.377L240.165 141.508L241.334 139.015L269.106 152.642C269.089 152.688 269.069 152.727 269.061 152.774L267.084 164.964C267.069 165.064 267.074 165.164 267.1 165.26L274.846 193.663C269.383 195.766 264.455 197.87 261.176 199.667C254.912 189.723 249.265 179.211 247.395 169.879ZM242.075 161.824L217.125 175.718C214.687 163.642 213.677 146.202 212.844 131.801C212.706 129.4 212.57 127.064 212.433 124.832L240.065 138.394L238.815 141.058C238.768 141.158 238.745 141.269 238.748 141.376L239.078 154.552C239.08 154.645 239.101 154.738 239.139 154.824L242.242 161.771C242.186 161.785 242.128 161.792 242.075 161.824ZM271.813 160.506C271.935 160.496 272.052 160.449 272.151 160.378L275.774 157.742C275.88 157.663 275.962 157.56 276.012 157.438L276.494 156.267L299.026 167.325V185.169C299.026 185.216 299.045 185.258 299.055 185.308C292.633 187.298 283.968 190.198 276.173 193.155L268.505 165.039L269.192 160.799L271.813 160.506ZM271.499 152.241L273.697 150.209C273.699 150.213 273.7 150.213 273.702 150.216L276.769 151.888L275.762 154.335L271.499 152.241ZM275.222 155.645L274.781 156.717L271.471 159.124L269.427 159.353L270.411 153.284L275.222 155.645ZM244.993 131.208L270.29 102.298C270.362 102.216 270.414 102.12 270.442 102.012C273.415 90.7687 274.196 69.592 272.709 53.5907C272.787 53.8835 273.039 54.1085 273.359 54.1193L283.338 54.4407C293.726 62.645 304.775 74.478 315.464 85.9254C323.817 94.8726 331.713 103.327 339.203 110.045L338.564 130.147C334.16 133.733 327.632 137.894 321.316 141.923C315.449 145.662 309.909 149.195 305.887 152.331C305.801 152.399 305.732 152.484 305.685 152.581C305.644 152.663 300.083 164.064 299.215 165.843L277.034 154.96L278.318 151.841C278.455 151.506 278.319 151.124 278.002 150.948L274.792 149.198L291.978 133.315C292.265 133.051 292.283 132.604 292.018 132.315C291.752 132.029 291.305 132.011 291.019 132.276L270.139 151.574L241.935 137.733L244.993 131.208ZM343.161 271.83L362.851 270.58C364.034 273.087 368.316 277.323 374.342 282.506C372.942 283.506 371.77 284.263 370.995 284.624L362.269 286.242L342.336 285.267L343.161 271.83ZM370.881 263.258C375.549 262.825 381.185 261.797 386.639 260.804C388.125 260.532 389.621 260.261 391.111 259.997C391.35 263.172 391.615 266.09 391.875 268.526C391.186 269.087 390.218 269.887 389.064 270.837C385.471 273.805 379.764 278.516 375.527 281.648C369.877 276.802 365.462 272.565 364.237 270.215L370.881 263.258ZM163.651 372.556C164.247 373.867 164.556 374.545 164.767 374.899L164.729 374.92C167.935 380.528 171.823 386.489 176.059 392.514C175.813 392.754 175.76 393.132 175.964 393.422C176.101 393.618 176.32 393.722 176.541 393.722C176.649 393.722 176.754 393.69 176.854 393.64C179.372 397.19 182 400.754 184.679 404.28L158.682 420.877C153.436 411.416 146.718 401.347 140.629 392.225C137.544 387.607 134.631 383.242 132.017 379.138C127.221 371.334 118.041 349.915 111.559 334.385C116.075 332.502 120.587 330.627 125.084 328.759C130.372 326.566 135.608 324.391 140.8 322.219L163.651 372.556ZM58.3583 301.679L59.2919 267.444L64.1705 269.765L72.2123 276.202L87.2888 308.551C77.4402 305.704 63.1258 301.689 58.3583 301.679ZM615.115 564.925L597.66 560.975C597.603 560.96 597.542 560.953 597.485 560.957L585.627 561.285C585.58 561.285 585.537 561.292 585.494 561.303C585.48 561.307 585.466 561.31 585.448 561.31C585.409 561.303 585.369 561.285 585.327 561.285C585.159 561.285 585.012 561.346 584.891 561.442C573.229 564.075 560.71 569.461 548.591 574.679C540.916 577.987 533.094 581.355 525.382 584.076L525.082 575.144C525.082 575.094 525.075 575.043 525.065 574.997L522.1 563.139C522.075 563.043 522.032 562.953 521.971 562.875L515.053 553.981C514.992 553.903 514.914 553.838 514.824 553.788C506.552 549.474 488.965 541.605 480.34 538.019C477.014 534.108 475.628 532.479 474.986 531.797C474.243 528.325 473.014 524.454 471.385 520.26L515.825 502.923L521.786 513.589C521.968 513.917 522.379 514.042 522.718 513.874L526.672 511.899C527.018 511.724 527.161 511.299 526.986 510.949C526.811 510.599 526.386 510.46 526.04 510.635L522.689 512.31L516.76 501.698C516.585 501.388 516.214 501.255 515.885 501.384L470.864 518.946C459.02 489.522 428.057 445.015 401.89 409.123C417.777 406.766 433.289 403.915 447.49 399.954L447.473 399.894C447.937 399.722 448.808 399.219 450.691 398.136L467.088 388.686L466.381 387.46C466.196 387.568 448.326 397.865 447.023 398.615C432.7 402.608 417.013 405.465 400.951 407.834C394.847 399.472 389.021 391.597 383.785 384.521C377.267 375.71 371.638 368.098 367.541 362.355C367.288 361.898 367.33 360.305 367.555 358.065C380.039 357.483 391.061 356.654 398.951 355.836V355.819C399.279 355.715 399.926 355.272 401.751 354.018L415.091 344.846C415.141 344.814 415.184 344.775 415.224 344.728L430.375 327.27C430.632 326.973 430.6 326.531 430.307 326.273C430.01 326.016 429.564 326.048 429.31 326.345L414.216 343.732C413.109 344.493 400.151 353.404 398.629 354.447C389.85 355.354 379.196 356.129 367.713 356.654C368.495 350.082 370.416 339.607 371.416 334.163C372.027 330.82 372.47 328.409 372.574 327.548C372.577 327.516 372.577 327.488 372.577 327.456L372.252 305.443H384.717C384.875 305.443 385.025 305.393 385.15 305.297C386.753 304.047 390.236 299.421 392.129 296.903C395.304 299.382 398.576 301.904 401.855 304.429C406.148 307.725 409.541 310.333 410.938 311.533C411.07 311.647 411.234 311.704 411.398 311.704C411.595 311.704 411.795 311.619 411.934 311.458C412.188 311.161 412.152 310.715 411.855 310.461C410.434 309.236 407.03 306.618 402.719 303.307C399.879 301.125 396.504 298.528 392.947 295.753C393.05 295.471 392.972 295.146 392.718 294.953C392.472 294.764 392.143 294.771 391.9 294.935C386.764 290.917 381.332 286.581 376.628 282.588C380.814 279.484 386.214 275.023 389.964 271.93C391.289 270.833 392.375 269.94 393.065 269.387C393.254 269.233 393.35 268.997 393.325 268.758C393.043 266.226 392.765 263.133 392.507 259.75C396.076 259.136 399.544 258.604 402.565 258.339C402.83 258.314 403.062 258.146 403.158 257.896L403.819 256.25C403.962 255.889 403.787 255.478 403.426 255.332C403.062 255.185 402.651 255.361 402.505 255.725L402.008 256.971C399.083 257.246 395.79 257.754 392.404 258.336C391.615 247.328 391.107 233.766 391.679 226.397C391.711 226.008 391.418 225.669 391.029 225.637C390.643 225.608 390.3 225.897 390.268 226.287C389.689 233.748 390.204 247.481 391.004 258.579C389.468 258.85 387.918 259.132 386.385 259.411C380.86 260.422 375.145 261.465 370.491 261.872C370.32 261.886 370.159 261.965 370.041 262.086L363.916 268.504L361.044 230.573C361.016 230.184 360.68 229.894 360.287 229.919C359.898 229.948 359.605 230.287 359.637 230.676L362.548 269.183L343.246 270.408L343.261 270.194C343.282 269.805 342.986 269.469 342.596 269.447C342.296 269.426 342.039 269.587 341.921 269.833L337.032 267.261L330.663 261.529L328.763 254.56L328.136 239.813L348.411 241.87C348.436 241.87 348.461 241.87 348.482 241.87C348.843 241.87 349.15 241.602 349.186 241.238C349.225 240.849 348.943 240.502 348.554 240.463L328.085 238.384C328.024 238.095 327.792 237.863 327.481 237.827L326.503 237.716L326.767 230.341C326.829 230.337 326.891 230.33 326.952 230.312C327.153 230.251 327.316 230.101 327.396 229.905L331.349 220.354C331.499 219.993 331.328 219.579 330.967 219.433C330.606 219.283 330.192 219.454 330.043 219.815L326.416 228.58L318.712 223.54L310.58 208.903L300.942 186.205C301.105 186.155 301.273 186.105 301.432 186.058C302.415 186.208 307.696 187.019 307.696 187.019L307.911 185.623L304.7 185.13C302.576 184.801 301.639 184.658 301.188 184.694L301.177 184.658C300.938 184.73 300.688 184.805 300.44 184.88V167.486L311.553 168.089C311.566 168.089 311.579 168.089 311.592 168.089C311.965 168.089 312.277 167.796 312.297 167.421C312.318 167.028 312.019 166.696 311.63 166.675L300.671 166.082C305.061 157.085 306.423 154.292 306.841 153.377C310.805 150.302 316.281 146.809 322.076 143.116C328.546 138.987 335.239 134.722 339.71 131.036C339.867 130.908 339.96 130.715 339.967 130.511L340.625 109.76C340.632 109.552 340.546 109.349 340.389 109.209C336.124 105.406 331.72 101.012 327.166 96.2798L329.61 96.2405C336.299 96.1298 348.757 95.9298 352.819 95.6191C352.965 95.6083 353.101 95.5547 353.211 95.4619L356.63 92.6653L366.17 92.9724L374.127 107.613V111.427C373.163 112.424 371.666 113.999 369.856 115.91C362.937 123.214 350.075 136.787 346.154 139.426C345.418 139.783 344.214 140.344 342.739 141.03C336.596 143.884 326.314 148.663 323.972 150.709C323.952 150.727 323.932 150.748 323.913 150.766L314.69 160.978C314.428 161.267 314.451 161.717 314.741 161.978C314.876 162.099 315.045 162.16 315.214 162.16C315.407 162.16 315.6 162.082 315.739 161.928L324.933 151.749C327.188 149.813 337.685 144.937 343.332 142.312C344.85 141.608 346.079 141.037 346.814 140.676C346.843 140.666 346.872 140.648 346.897 140.63C350.904 137.965 363.409 124.768 370.881 116.885C372.82 114.839 374.392 113.181 375.342 112.21C375.47 112.078 375.542 111.899 375.542 111.713V107.431C375.542 107.313 375.51 107.199 375.456 107.095L367.22 91.9437C367.102 91.7223 366.873 91.583 366.623 91.5723L356.412 91.2437C356.24 91.2366 356.072 91.2973 355.94 91.4044L352.49 94.2261C348.254 94.5261 336.146 94.719 329.587 94.8262L327.361 94.8619L316.873 84.3752L319.667 81.5822C319.799 81.4465 319.874 81.2679 319.874 81.0822V68.3561L322.142 61.8734L329.029 41.5397L335.567 31.7354C335.653 31.6068 335.696 31.4496 335.685 31.296L335.024 21.7416C334.999 21.3523 334.646 21.0666 334.271 21.0844C333.881 21.113 333.588 21.4488 333.613 21.8381L334.256 31.1531L327.802 40.8325C327.768 40.886 327.741 40.9396 327.72 40.9968L320.806 61.4127L318.5 68.0026C318.474 68.0776 318.46 68.1561 318.46 68.2347V80.7893L315.43 83.8181C304.975 72.6243 294.21 61.1913 284.03 53.1871C283.912 53.0942 283.766 53.0406 283.616 53.0334L273.405 52.7049C273.043 52.6942 272.725 52.9763 272.687 53.3442C272.245 48.6724 271.609 44.4471 270.775 41.0575C270.748 40.9432 270.694 40.8432 270.618 40.7574C264.555 33.9033 251.93 20.3737 245.284 13.7731L237.753 1.33282C237.552 0.99707 237.117 0.889954 236.783 1.09357C236.449 1.29712 236.342 1.72931 236.544 2.06506L244.12 14.5803C244.15 14.6304 244.186 14.6768 244.227 14.7161C250.796 21.2309 263.331 34.6641 269.444 41.5611C272.972 56.1552 272.803 87.322 269.117 101.491L243.864 130.354C243.82 130.404 243.784 130.458 243.756 130.518L240.666 137.112L212.331 123.207C212.171 120.7 212.007 118.357 211.832 116.267C211.824 116.174 211.798 116.085 211.756 116.003C210 112.595 208.41 109.685 207.007 107.113C200.269 94.7726 197.48 89.6614 198.657 70.5849C198.662 70.5027 198.653 70.4242 198.631 70.3456L189.428 38.1358L189.303 36.4607C188.76 29.1851 187.75 15.6447 187.458 9.89783C187.453 9.80139 187.428 9.70496 187.384 9.61566L182.773 0.393494C182.598 0.043457 182.175 -0.0994263 181.824 0.0791626C181.475 0.25061 181.334 0.675659 181.508 1.0257L186.054 10.1157C186.356 15.9626 187.355 29.3458 187.893 36.5678L188.023 38.3144C188.027 38.3608 188.036 38.4073 188.049 38.4537L197.238 70.617C196.056 90.0043 198.904 95.2226 205.766 107.792C207.148 110.324 208.712 113.188 210.434 116.524C210.587 118.353 210.731 120.385 210.871 122.543C210.87 122.539 210.868 122.539 210.867 122.539L200.821 121.553C193.417 120.825 191.317 120.614 190.618 120.632L190.609 120.568C182.521 121.675 167.254 125.968 159.911 128.804C147.687 129.833 122.1 130.004 99.517 130.158C83.101 130.268 67.5951 130.372 58.2594 130.772C58.1776 130.775 58.0972 130.793 58.0215 130.826C46.377 135.601 3.9424 151.502 -6.18299 155.188C-6.54995 155.324 -6.739 155.727 -6.60574 156.095C-6.47237 156.463 -6.06595 156.653 -5.69985 156.517C4.39933 152.842 46.6241 137.015 58.4433 132.179C67.7662 131.783 83.1953 131.679 99.527 131.572C123.305 131.411 147.893 131.243 160.131 130.204C160.199 130.2 160.264 130.186 160.328 130.161C167.538 127.357 182.667 123.096 190.719 121.978C192.036 122.107 208.962 123.771 210.601 123.936L210.972 124.114C211.126 126.582 211.277 129.193 211.433 131.879C211.745 137.28 212.082 143.109 212.51 148.92C204.858 149.334 195.651 150.277 185.905 151.277C162.376 153.692 135.707 156.431 118.037 153.181C117.982 153.17 117.926 153.17 117.869 153.17C117.396 153.199 106.272 153.838 104.595 154.17C104.212 154.249 103.964 154.62 104.041 155.002C104.117 155.385 104.488 155.635 104.872 155.556C106.128 155.306 113.869 154.817 117.865 154.588C123.733 155.66 130.556 156.081 137.91 156.081C152.949 156.081 170.209 154.31 186.049 152.684C195.79 151.684 204.992 150.741 212.615 150.331C213.328 159.674 214.288 168.893 215.772 176.165L185.172 173.265C185.133 173.261 185.092 173.261 185.052 173.265C184.921 173.275 171.881 174.25 169.953 174.25C169.563 174.25 169.246 174.568 169.246 174.958C169.246 175.347 169.563 175.665 169.953 175.665C171.885 175.665 184.013 174.761 185.098 174.679L216.08 177.615C216.374 178.936 216.686 180.183 217.02 181.347C218.59 189.727 218.219 212.357 218.04 223.233L218.004 225.526L214.789 226.762L211.77 220.122C211.608 219.765 211.187 219.608 210.835 219.772C210.479 219.933 210.322 220.351 210.484 220.704L213.778 227.951C213.895 228.212 214.152 228.365 214.421 228.365C214.506 228.365 214.592 228.351 214.675 228.319L218.957 226.672C219.226 226.569 219.405 226.312 219.41 226.022L219.453 223.258C219.633 212.336 220.006 189.605 218.394 181.022C218.05 179.826 217.73 178.533 217.43 177.168L242.764 163.057C242.779 163.049 242.788 163.035 242.803 163.024L244.975 167.886C245.512 169.086 245.815 169.764 246.016 170.154H246.009C247.922 179.704 253.65 190.37 259.989 200.435L249.563 208.489C249.472 208.56 249.4 208.653 249.352 208.757C242.907 222.854 241.674 225.551 241.439 226.147L241.413 226.14C241.321 226.447 241.011 228.33 240.148 233.634C238.777 242.059 235.927 259.575 234.259 266.972L167.916 272.741C167.527 272.776 167.239 273.119 167.273 273.505C167.305 273.876 167.614 274.151 167.976 274.151C167.997 274.151 168.017 274.151 168.038 274.151L233.914 268.422C233.696 269.279 233.507 269.89 233.357 270.187C233.293 270.222 233.234 270.265 233.182 270.319C233.182 270.319 220.976 282.977 219.916 284.077C195.988 297.16 169.494 308.686 141.479 320.405C141.278 320.187 140.96 320.105 140.675 320.234C140.403 320.359 140.25 320.63 140.264 320.912C135.071 323.084 129.832 325.259 124.542 327.456C120.045 329.324 115.532 331.195 111.015 333.081C109.442 329.306 108.046 325.923 106.941 323.245L105.716 320.28C105.697 320.234 105.674 320.191 105.646 320.148L104.737 318.816C101.784 314.465 101.608 314.205 95.852 311.036C95.802 311.008 95.7488 310.986 95.6938 310.972C94.7366 310.715 92.9443 310.194 90.6756 309.536C90.1698 309.386 89.638 309.233 89.0919 309.076L73.4234 275.451C73.3777 275.355 73.3095 275.266 73.2245 275.198L64.9895 268.612C64.9467 268.576 64.901 268.547 64.8517 268.526L59.213 265.84C59.0926 265.64 58.8876 265.501 58.6383 265.493C58.5955 265.49 58.5576 265.504 58.5165 265.508L44.2354 258.707L40.4751 254.321L38.906 249.299L39.2325 234.923C39.2339 234.866 39.2282 234.805 39.2153 234.752L35.939 220.333V200.32C35.939 199.931 35.6225 199.613 35.2321 199.613C34.8418 199.613 34.5253 199.931 34.5253 200.32V220.415C34.5253 220.465 34.5314 220.518 34.5428 220.572L37.8173 234.977L37.4902 249.385C37.488 249.46 37.4995 249.539 37.522 249.61L39.1692 254.882C39.1978 254.971 39.2446 255.057 39.3071 255.132L43.2599 259.743C43.3239 259.818 43.4035 259.879 43.4924 259.922L57.8961 266.779L56.9242 302.411C56.9185 302.625 57.0075 302.825 57.1668 302.964C57.3257 303.104 57.5389 303.164 57.7472 303.129C61.216 302.55 78.4399 307.454 88.3157 310.322C88.37 310.344 88.4257 310.361 88.4843 310.372C89.1154 310.554 89.7173 310.729 90.2805 310.894C92.4943 311.536 94.2555 312.047 95.2448 312.315C100.629 315.28 100.696 315.38 103.567 319.609L104.438 320.887L105.635 323.784C106.788 326.581 108.176 329.942 109.71 333.628C72.6902 349.09 35.4747 365.323 4.09334 384.964L-1.76274 370.998L1.17614 339.649L6.57736 325.409C6.64572 325.23 6.63554 325.038 6.56214 324.873C6.10411 321.323 5.57506 254.982 5.31972 222.936C5.231 211.825 5.17128 204.31 5.14421 202.785L9.51327 194.048C9.68793 193.698 9.54649 193.277 9.19718 193.102C8.84708 192.927 8.42294 193.066 8.24882 193.416L3.80174 202.31C3.74999 202.413 3.72445 202.528 3.72766 202.646C3.75209 203.624 3.81653 211.728 3.90596 222.947C4.04244 240.049 4.24835 265.89 4.47715 287.07C4.60273 298.693 4.72285 307.768 4.83475 314.04C4.9638 321.302 5.01209 324.016 5.1911 325.08L-0.17958 339.239C-0.201903 339.296 -0.216441 339.36 -0.222441 339.421L-3.18668 371.045C-3.19729 371.159 -3.17982 371.277 -3.13493 371.384L2.88177 385.732C-0.2513 387.711 -3.33176 389.721 -6.33983 391.772C-6.66214 391.993 -6.74529 392.432 -6.52538 392.754C-6.3888 392.954 -6.16681 393.064 -5.94079 393.064C-5.80364 393.064 -5.66509 393.022 -5.54316 392.939C-2.5841 390.921 0.44572 388.943 3.52747 386.996C3.64759 387.082 3.79074 387.132 3.94057 387.132C4.03169 387.132 4.1242 387.118 4.21349 387.078C4.52477 386.95 4.67949 386.621 4.62199 386.303C35.9583 366.655 73.2009 350.408 110.254 334.931C116.874 350.804 125.922 371.916 130.819 379.888C133.446 384.014 136.364 388.386 139.453 393.011C145.581 402.19 152.35 412.337 157.587 421.817L126.046 452.394L114.028 459.216L113.856 459.256C109.15 460.327 96.6489 463.174 92.8732 465.185L92.9014 465.238C91.8831 465.835 87.022 469.042 60.8646 486.301C60.5388 486.515 60.4492 486.954 60.6642 487.279C60.7999 487.486 61.0253 487.597 61.255 487.597C61.3882 487.597 61.5235 487.561 61.6432 487.479C61.6432 487.479 93.4679 466.481 93.5379 466.435C97.1468 464.51 109.96 461.591 114.17 460.631L114.443 460.57C114.511 460.556 114.575 460.531 114.635 460.495L126.823 453.58C126.875 453.548 126.923 453.512 126.966 453.469L158.291 423.103C159.403 425.16 160.442 427.182 161.374 429.15C161.512 429.764 162.454 434.004 162.642 434.854C162.418 435.936 162.141 437.257 161.823 438.761C159.23 451.08 154.401 474.007 154.754 482.311C154.756 482.347 154.76 482.382 154.768 482.418C160.131 509.095 177.165 542.08 193.638 573.979C203.138 592.373 212.11 609.75 218.047 624.512C218.158 624.787 218.423 624.955 218.703 624.955C218.791 624.955 218.88 624.937 218.967 624.905C219.329 624.758 219.504 624.347 219.359 623.983C213.397 609.161 204.409 591.756 194.894 573.329C178.477 541.541 161.501 508.667 156.165 482.193C155.844 474.017 160.815 450.412 163.207 439.05C163.539 437.475 163.829 436.1 164.058 434.989C164.078 434.893 164.077 434.793 164.055 434.693L163.397 431.728C162.981 429.86 162.796 429.028 162.645 428.635L162.686 428.617C161.686 426.503 160.569 424.328 159.368 422.117L185.54 405.405C196.235 419.384 207.545 432.578 215.209 441.243C215.242 441.283 215.278 441.315 215.317 441.343L225.529 448.919C225.603 448.976 225.686 449.015 225.775 449.037L239.949 452.648C241.637 453.08 242.395 453.273 242.783 453.301L242.785 453.341C262.07 452.334 277.178 437.325 291.788 422.81C298.048 416.591 303.961 410.72 310.043 406.094C310.353 405.858 310.414 405.416 310.178 405.105C309.941 404.794 309.498 404.733 309.187 404.969C303.031 409.652 297.086 415.556 290.792 421.806C276.397 436.107 261.514 450.891 242.818 451.923C241.495 451.584 227.77 448.087 226.259 447.701L216.219 440.254C208.575 431.607 197.321 418.477 186.689 404.583C186.828 404.362 186.84 404.069 186.689 403.833C186.515 403.562 186.19 403.462 185.895 403.547C183.197 400.001 180.549 396.411 178.014 392.839C204.838 373.927 270.248 329.492 298.806 310.597C299.131 310.383 299.221 309.944 299.005 309.618C298.789 309.293 298.351 309.201 298.026 309.418C269.46 328.316 204.03 372.77 177.198 391.686C173.003 385.717 169.155 379.817 165.985 374.274C165.888 374.063 145.555 329.274 142.105 321.673C170.163 309.936 196.7 298.393 220.689 285.263L220.672 285.234C220.974 285.016 221.534 284.434 222.943 282.973L234.047 271.458C234.056 271.455 234.065 271.451 234.074 271.448C234.423 271.276 234.809 270.512 235.373 268.294L274.102 264.926C274.491 264.893 274.779 264.551 274.745 264.161C274.711 263.772 274.368 263.479 273.98 263.518L235.719 266.847C236.814 262.033 238.515 252.475 241.543 233.859C242.136 230.216 242.651 227.051 242.759 226.58C243.22 225.569 249.8 211.178 250.565 209.503L260.749 201.631C263.707 206.274 266.77 210.771 269.617 214.95C271.77 218.111 273.806 221.101 275.608 223.869L274.33 232.498C274.302 232.687 274.352 232.88 274.469 233.03C274.585 233.184 274.759 233.28 274.95 233.305L302.856 236.463C303.155 238.395 303.315 240.841 303.566 244.713L303.639 245.824C303.641 245.863 303.648 245.906 303.657 245.945C303.697 246.11 307.28 261.093 307.28 261.093C307.291 261.136 307.305 261.179 307.324 261.218L311.838 271.215L311.23 273.951C311.214 274.023 311.212 274.098 311.219 274.173C301.995 281.673 292.443 290.035 287.066 294.996C286.78 295.26 286.762 295.707 287.026 295.996C287.166 296.146 287.355 296.221 287.546 296.221C287.717 296.221 287.889 296.16 288.025 296.035C293.331 291.138 302.713 282.923 311.809 275.512C314.674 281.52 314.987 282.088 320.674 287.149L320.697 287.124C321.089 287.338 322.008 287.581 324.093 288.127L327.222 288.953C327.281 288.967 327.341 288.974 327.402 288.974C327.478 288.974 327.553 288.963 327.626 288.938L335.406 286.345L340.743 286.606L329.357 326.945C329.341 327.002 329.332 327.063 329.331 327.123L328.805 357.344C305.683 357.054 283.631 355.383 269.952 351.49C269.575 351.383 269.186 351.6 269.079 351.975C268.972 352.351 269.189 352.743 269.565 352.851C284.055 356.976 306.228 358.572 328.779 358.815L328.013 402.883C328.006 403.276 328.317 403.598 328.707 403.601C328.712 403.601 328.716 403.601 328.72 403.601C329.104 403.601 329.419 403.294 329.427 402.908L330.193 358.83C331.813 358.844 333.438 358.851 335.06 358.851C345.754 358.851 356.38 358.569 366.162 358.13C365.927 360.783 365.973 362.473 366.352 363.123C370.491 368.93 376.124 376.545 382.65 385.36C387.757 392.264 393.425 399.929 399.369 408.066C388.396 409.659 377.267 411.034 366.28 412.387C354.929 413.788 344.204 415.109 333.921 416.638L328.575 410.977C328.306 410.691 327.858 410.68 327.576 410.948C327.291 411.216 327.279 411.662 327.547 411.945L333.146 417.874C333.281 418.017 333.467 418.095 333.66 418.095C333.696 418.095 333.731 418.095 333.763 418.088C338.11 417.441 342.543 416.831 347.064 416.234L335.914 423.381C335.585 423.592 335.492 424.031 335.699 424.36C335.835 424.571 336.064 424.685 336.296 424.685C336.428 424.685 336.56 424.649 336.678 424.571L349.525 416.338C349.693 416.227 349.797 416.056 349.833 415.874C355.229 415.173 360.762 414.491 366.452 413.791C377.692 412.405 389.086 410.995 400.312 409.355C426.539 445.308 457.738 490.076 469.557 519.457L469.442 519.5C469.078 519.643 468.899 520.053 469.042 520.418C469.149 520.696 469.417 520.868 469.699 520.868C469.785 520.868 469.871 520.85 469.957 520.818L470.074 520.771C471.682 524.914 472.892 528.74 473.618 532.165C473.643 532.286 473.7 532.394 473.778 532.483C473.943 532.676 479.372 539.062 479.372 539.062C479.443 539.148 479.536 539.216 479.639 539.258C488.137 542.787 505.688 550.631 514.031 554.97L520.764 563.625L523.675 575.265L523.982 584.559C518.396 586.477 512.874 588.037 507.52 588.955C492.891 588.87 458.859 589.123 440.976 589.288C430.157 590.284 407.044 597.517 395.018 601.842C394.986 601.853 394.954 601.867 394.922 601.885L367.409 616.615C364.294 618.283 362.973 618.99 362.401 619.358L362.384 619.311C348.65 624.855 320.718 638.013 306.63 646.031C306.564 646.071 306.504 646.117 306.453 646.174L295.582 658.361C295.487 658.468 295.426 658.604 295.409 658.747L293.432 674.555C293.384 674.944 293.659 675.298 294.046 675.344C294.076 675.348 294.105 675.352 294.135 675.352C294.486 675.352 294.79 675.091 294.835 674.73L296.784 659.14L307.43 647.203C321.505 639.202 349.25 626.137 362.912 620.622C362.937 620.611 362.962 620.601 362.984 620.586C363.198 620.472 394.154 603.899 395.543 603.153C407.519 598.853 430.432 591.681 441.047 590.698C458.895 590.534 492.994 590.284 507.574 590.37C507.62 590.37 507.656 590.366 507.699 590.359C512.881 589.473 518.203 588.002 523.582 586.191L522.389 589.766C522.268 590.138 522.468 590.538 522.836 590.663C522.911 590.688 522.986 590.698 523.061 590.698C523.357 590.698 523.632 590.509 523.732 590.213L525.265 585.612C533.208 582.841 541.255 579.38 549.152 575.979C560.996 570.879 573.229 565.618 584.591 562.96L584.28 580.426C584.276 580.555 584.312 580.683 584.376 580.798L591.884 593.531L592.524 597.352C592.581 597.699 592.881 597.945 593.22 597.945C593.259 597.945 593.299 597.942 593.338 597.935C593.72 597.87 593.981 597.506 593.917 597.12L593.259 593.17C593.245 593.081 593.213 592.999 593.17 592.927L585.694 580.251L586.009 562.689L597.435 562.371L614.804 566.307C615.183 566.389 615.565 566.153 615.65 565.771C615.736 565.393 615.497 565.014 615.115 564.925Z" fill="white"/>
<path d="M145.47 167.706L137.894 170.342C137.709 170.406 137.612 170.606 137.676 170.792C137.727 170.934 137.863 171.027 138.01 171.027C138.048 171.027 138.087 171.02 138.126 171.009L145.651 168.391L167.336 167.734C167.531 167.727 167.685 167.566 167.679 167.37C167.673 167.173 167.507 167.038 167.315 167.027L145.575 167.684C145.539 167.688 145.503 167.695 145.47 167.706Z" fill="white"/>
<path d="M292.856 100.325C292.811 100.396 292.792 100.482 292.803 100.564C293.249 103.825 292.974 114.08 292.842 119.008L292.806 120.366L287.096 122.587C286.914 122.659 286.824 122.862 286.895 123.045C286.949 123.184 287.083 123.27 287.224 123.27C287.267 123.27 287.31 123.262 287.353 123.245L293.281 120.941C293.414 120.887 293.503 120.762 293.507 120.619L293.548 119.03C293.679 114.144 293.95 104.05 293.521 100.6L296.415 96.0959C296.45 96.0424 296.469 95.9817 296.471 95.9174L297.12 78.0659L303.901 73.1334C304.06 73.0191 304.095 72.7976 303.98 72.6404C303.865 72.4833 303.645 72.4476 303.486 72.5619L296.784 77.4373C296.632 77.4266 296.495 77.5337 296.447 77.6837L296.338 77.7623L287.675 77.4408L287.579 67.0436L291.453 62.2003C291.575 62.0468 291.55 61.8253 291.398 61.7039C291.245 61.5824 291.024 61.6074 290.901 61.7574L286.948 66.6971C286.898 66.7614 286.87 66.84 286.871 66.9221L287.066 88.0274C287.017 87.9988 286.963 87.9774 286.903 87.9774L272.08 87.6452C271.866 87.6488 271.723 87.7988 271.719 87.9917C271.715 88.1882 271.869 88.3489 272.064 88.3524L286.887 88.6846C286.89 88.6846 286.892 88.6846 286.895 88.6846C286.96 88.6846 287.019 88.6596 287.072 88.6274L287.196 102.018L278.009 101.811C277.94 101.814 277.86 101.832 277.799 101.875L274.505 104.179C274.345 104.293 274.306 104.511 274.418 104.672C274.487 104.772 274.596 104.822 274.708 104.822C274.778 104.822 274.848 104.804 274.91 104.761L278.109 102.521L287.294 102.729C287.359 102.8 287.45 102.846 287.554 102.846C287.555 102.846 287.556 102.846 287.557 102.846C287.655 102.846 287.743 102.807 287.806 102.739L292.487 102.846C292.703 102.861 292.843 102.696 292.848 102.5C292.852 102.307 292.698 102.143 292.502 102.139L287.903 102.036L287.682 78.1481L296.399 78.4695L295.768 95.7959L292.856 100.325Z" fill="white"/>
<path d="M273.7 124.253V134.629C267.286 134.54 259.223 134.429 257.529 134.415L256.97 124.911L273.7 124.253ZM252.331 122.085C252.239 122.257 252.303 122.471 252.475 122.564L256.243 124.593L256.897 135.697L253.634 143.526C253.559 143.705 253.644 143.912 253.824 143.987C253.869 144.005 253.915 144.016 253.96 144.016C254.099 144.016 254.23 143.933 254.286 143.798L257.58 135.894C257.601 135.844 257.61 135.79 257.607 135.736L257.571 135.122C259.357 135.14 267.418 135.251 273.796 135.336C273.861 135.408 273.951 135.451 274.053 135.451C274.152 135.451 274.241 135.411 274.305 135.344C278.052 135.397 281.121 135.44 281.81 135.451L283.685 137.322C283.754 137.394 283.845 137.426 283.935 137.426C284.025 137.426 284.116 137.394 284.185 137.322C284.323 137.187 284.323 136.962 284.185 136.822L282.208 134.847C282.143 134.783 282.055 134.747 281.963 134.743C281.876 134.743 278.573 134.697 274.407 134.64V112.867L277.9 110.009C278.051 109.884 278.074 109.663 277.95 109.509C277.826 109.359 277.603 109.338 277.453 109.459L273.829 112.424C273.747 112.492 273.7 112.592 273.7 112.699V123.546L257.007 124.2L252.81 121.939C252.638 121.85 252.424 121.91 252.331 122.085Z" fill="white"/>
<path d="M253.163 204.963L241.905 197.688L231.364 193.405C231.327 193.391 231.289 193.38 231.249 193.38L218.403 192.719C218.216 192.709 218.042 192.862 218.032 193.055C218.022 193.252 218.172 193.416 218.367 193.427L231.153 194.084L241.58 198.313L252.779 205.56C252.838 205.595 252.905 205.613 252.971 205.613C253.087 205.613 253.2 205.556 253.268 205.453C253.374 205.288 253.327 205.07 253.163 204.963Z" fill="white"/>
<path d="M169.967 207.083L173.471 204.215C173.622 204.093 173.645 203.868 173.521 203.718C173.397 203.568 173.174 203.543 173.024 203.668L169.401 206.633C169.325 206.693 169.278 206.786 169.272 206.883L168.952 211.676L144.052 202.622C143.868 202.554 143.666 202.65 143.6 202.832C143.533 203.014 143.628 203.218 143.811 203.286L168.715 212.34L165.393 216.569C165.273 216.723 165.3 216.944 165.453 217.066C165.518 217.116 165.595 217.141 165.671 217.141C165.776 217.141 165.88 217.094 165.95 217.005L169.572 212.394C169.642 212.305 169.666 212.187 169.634 212.079C169.628 212.058 169.611 212.04 169.6 212.019C169.625 211.972 169.644 211.926 169.647 211.869L169.967 207.083Z" fill="white"/>
<path d="M106.663 193.852C106.548 193.691 106.328 193.659 106.169 193.774C106.011 193.888 105.976 194.109 106.091 194.266L108.67 197.813L110.307 214.514C110.325 214.7 110.479 214.836 110.659 214.836C110.67 214.836 110.682 214.832 110.693 214.832C110.888 214.814 111.029 214.639 111.011 214.447L109.364 197.649C109.358 197.585 109.335 197.524 109.298 197.474L106.663 193.852Z" fill="white"/>
<path d="M48.6977 201.664C48.7138 201.664 48.7291 201.667 48.7445 201.667C48.9188 201.667 49.0709 201.535 49.0941 201.36L50.7143 189.048C51.5136 188.727 52.9102 188.116 54.6314 187.341L54.3192 202.624C54.3156 202.817 54.4707 202.978 54.6657 202.985C54.6682 202.985 54.6703 202.985 54.6728 202.985C54.8646 202.985 55.0221 202.832 55.0261 202.639L55.3454 187.02C57.6756 185.966 60.4886 184.673 63.2131 183.416V195.32L60.2711 203.164C60.2029 203.349 60.2954 203.553 60.4779 203.621C60.519 203.635 60.5608 203.642 60.6022 203.642C60.7451 203.642 60.8801 203.557 60.9333 203.414L63.8975 195.51C63.9121 195.467 63.9196 195.427 63.9196 195.385V183.087C65.8194 182.208 67.6496 181.358 69.2097 180.633C70.8038 179.894 72.0924 179.294 72.8457 178.948L83.2862 180.255C83.3133 180.255 83.3405 180.258 83.3669 180.255L89.276 179.633L89.8957 185.212C89.9078 185.319 89.9682 185.416 90.0592 185.473C90.1507 185.53 90.2632 185.541 90.365 185.505L100.453 181.926L107.853 184.805L100.893 190.498C100.871 190.516 100.851 190.538 100.834 190.559L97.9113 194.456L89.736 199.363C89.6589 199.41 89.6024 199.481 89.5778 199.571C89.5163 199.785 89.161 200.367 88.7845 200.981C87.4151 203.217 85.1231 206.964 87.0622 208.507C87.1276 208.557 87.2051 208.582 87.2822 208.582C87.3865 208.582 87.4894 208.539 87.559 208.45C87.6805 208.296 87.6551 208.075 87.5026 207.953C86.0521 206.8 88.222 203.253 89.3874 201.349C89.8142 200.653 90.086 200.203 90.2082 199.903L98.3346 195.027C98.3735 195.006 98.4078 194.974 98.4353 194.938L101.374 191.02L108.587 185.116C108.594 185.112 108.597 185.102 108.604 185.098L112.188 186.491C112.369 186.562 112.575 186.47 112.645 186.287C112.716 186.105 112.626 185.902 112.444 185.83L108.938 184.469L113.952 174.129C114.037 173.951 113.964 173.74 113.788 173.654C113.612 173.572 113.401 173.644 113.316 173.819L108.277 184.212L100.587 181.219C100.507 181.187 100.419 181.187 100.34 181.216L90.5493 184.691L89.9396 179.205C89.9232 179.055 89.8092 178.937 89.671 178.901L92.5537 178.64L92.8591 183.219C92.8713 183.405 93.027 183.551 93.2116 183.551C93.2195 183.551 93.2274 183.548 93.2352 183.548C93.4299 183.537 93.5774 183.366 93.5645 183.173L93.2349 178.233C93.2284 178.137 93.1841 178.047 93.1116 177.987C93.0391 177.926 92.9448 177.894 92.8502 177.905L89.227 178.233C89.0327 178.251 88.8895 178.422 88.907 178.615C88.922 178.78 89.0463 178.905 89.2038 178.93L83.3333 179.548L72.8332 178.233C72.7679 178.226 72.7014 178.237 72.6421 178.262C71.9035 178.601 70.5734 179.219 68.9122 179.99C67.4338 180.68 65.7123 181.48 63.9196 182.308V182.208C63.9196 182.012 63.7618 181.855 63.5664 181.855C63.371 181.855 63.2131 182.012 63.2131 182.208V182.637C60.4833 183.898 57.6441 185.205 55.2768 186.277C55.2136 186.195 55.12 186.137 55.0096 186.137C54.8339 186.141 54.6535 186.287 54.6489 186.484L54.6475 186.559C52.6448 187.462 51.0486 188.163 50.2632 188.466C50.1428 188.513 50.0574 188.623 50.0407 188.748L48.3937 201.267C48.368 201.46 48.5045 201.639 48.6977 201.664Z" fill="white"/>
<path d="M-6.26377 200.996H4.27684C4.47217 200.996 4.63012 200.839 4.63012 200.642C4.63012 200.45 4.47217 200.289 4.27684 200.289H-6.26377C-6.4591 200.289 -6.61719 200.45 -6.61719 200.642C-6.61719 200.839 -6.4591 200.996 -6.26377 200.996Z" fill="white"/>
<path d="M5.59581 219.394C5.38361 219.397 5.23892 219.544 5.23446 219.74C5.23028 219.937 5.38501 220.097 5.57991 220.101L34.8956 220.762C34.8985 220.762 34.901 220.762 34.9035 220.762C35.0949 220.762 35.2525 220.608 35.2567 220.415C35.261 220.219 35.1067 220.058 34.9117 220.054L5.59581 219.394Z" fill="white"/>
<path d="M1.06226 247.019H1.06254C1.96858 247.944 9.82018 248.427 31.4484 248.894C35.0919 248.977 37.9692 249.037 38.4932 249.098C38.5068 249.102 38.5204 249.102 38.5336 249.102C38.7111 249.102 38.864 248.966 38.8843 248.787C38.9068 248.594 38.7675 248.419 38.5732 248.394C38.0171 248.334 35.2683 248.273 31.4641 248.191C22.1451 247.987 2.75507 247.562 1.61991 246.598C1.60401 246.569 1.58476 246.544 1.56187 246.519L-6.01392 238.944C-6.15204 238.808 -6.37556 238.808 -6.51368 238.944C-6.65169 239.083 -6.65169 239.308 -6.51368 239.444L1.06226 247.019Z" fill="white"/>
<path d="M-5.95154 371.625C-5.94233 371.625 -5.93254 371.625 -5.92293 371.625L2.31184 370.964C2.37224 370.961 2.43042 370.939 2.48078 370.907C2.63244 370.804 17.6631 360.674 19.9465 359.042C22.1788 357.449 38.4537 352.556 38.6177 352.506C38.8048 352.452 38.9109 352.252 38.8548 352.066C38.7991 351.881 38.602 351.773 38.4148 351.831C37.938 351.973 29.8748 354.399 24.3612 356.395C24.3312 355.102 24.4133 351.641 24.5233 347.019C24.6008 343.776 24.6683 340.697 24.724 337.783L38.8398 338.029C38.8416 338.029 38.8438 338.029 38.8459 338.029C39.0384 338.029 39.1959 337.872 39.1991 337.679C39.2027 337.487 39.0473 337.326 38.852 337.322L24.7373 337.079C24.9719 324.489 24.9755 315.145 24.554 309.602L38.2901 305.402C38.4769 305.345 38.5823 305.148 38.5248 304.962C38.4677 304.777 38.268 304.67 38.0837 304.727L24.494 308.881C24.2522 306.145 23.8915 304.459 23.3822 303.909C23.3604 303.091 23.4025 300.491 23.4593 296.98C23.8615 272.103 23.6304 263.509 22.5542 262.927L18.6018 260.623C18.5639 260.598 18.5221 260.584 18.4789 260.577L5.96181 258.602C5.77165 258.569 5.58817 258.702 5.55778 258.894C5.52696 259.087 5.65879 259.27 5.85145 259.298L18.3032 261.266L22.1735 263.52C22.8146 264.259 22.9575 272.235 22.9346 280.664L5.25433 280.335C5.25194 280.335 5.24986 280.335 5.24776 280.335C5.05549 280.335 4.89826 280.489 4.89437 280.682C4.89087 280.878 5.04631 281.039 5.24122 281.043L22.9325 281.371C22.9107 287.179 22.815 293.112 22.7525 296.969C22.6917 300.744 22.6474 303.47 22.6821 304.098C22.6892 304.22 22.7607 304.334 22.8707 304.391C23.32 304.627 23.6275 306.377 23.8315 309.081L2.56004 315.581H-5.62198C-5.81732 315.581 -5.9754 315.738 -5.9754 315.935C-5.9754 316.131 -5.81732 316.288 -5.62198 316.288H2.61279C2.64751 316.288 2.68255 316.285 2.71587 316.274L23.8822 309.806C24.3094 316.378 24.2079 327.718 24.034 337.065L0.642881 336.661C0.463189 336.672 0.286996 336.815 0.283068 337.012C0.27971 337.204 0.435295 337.365 0.630346 337.369L24.0208 337.772C23.9533 341.287 23.8768 344.487 23.8168 347.005C23.7 351.92 23.614 355.531 23.6625 356.652C21.7002 357.377 20.1476 358.031 19.5358 358.467C17.3445 360.035 3.33481 369.478 2.16268 370.268L-5.97944 370.921C-6.17378 370.936 -6.31918 371.107 -6.30353 371.3C-6.2886 371.486 -6.13416 371.625 -5.95154 371.625Z" fill="white"/>
<path d="M94.2037 281.227L89.3819 268.368L107.136 260.946L129.429 258.732C129.694 262.668 130.16 269.626 130.633 276.766C118.325 277.837 105.981 279.101 94.2205 281.334C94.219 281.298 94.2169 281.262 94.2037 281.227ZM39.8396 298.567C39.8807 298.728 40.0243 298.832 40.1811 298.832C40.2107 298.832 40.2407 298.828 40.2704 298.821L58.0572 294.21C58.0865 294.203 58.1143 294.192 58.14 294.178C78.5117 282.855 104.674 279.734 130.68 277.469C130.879 280.473 131.078 283.491 131.263 286.313C131.188 286.273 131.099 286.256 131.009 286.277L104.328 292.867C104.268 292.881 104.213 292.91 104.168 292.953L87.6985 308.765C87.5578 308.9 87.5531 309.122 87.6881 309.265C87.7578 309.336 87.8503 309.372 87.9432 309.372C88.0314 309.372 88.1196 309.34 88.1878 309.275L104.59 293.531L131.178 286.963C131.225 286.952 131.266 286.931 131.302 286.906C131.639 292.056 131.925 296.492 132.069 298.896C132.081 298.946 134.044 306.8 134.067 306.864L140.985 321.687C141.045 321.816 141.172 321.891 141.305 321.891C141.355 321.891 141.406 321.88 141.454 321.855C141.631 321.773 141.708 321.562 141.625 321.387L134.73 306.629L133.742 302.675C133.147 300.296 132.885 299.246 132.715 298.792L132.764 298.789C132.542 295.024 131.963 286.156 131.384 277.408C133.948 277.187 136.51 276.973 139.064 276.758C149.423 275.894 159.207 275.073 168.364 273.794C168.557 273.769 168.691 273.59 168.665 273.397C168.638 273.201 168.459 273.065 168.266 273.094C159.129 274.373 149.354 275.19 139.005 276.055C136.455 276.266 133.897 276.48 131.337 276.701C130.864 269.558 130.398 262.593 130.133 258.661L153.527 256.339C153.721 256.321 153.863 256.146 153.844 255.953C153.825 255.757 153.653 255.625 153.457 255.635L126.521 258.311C126.701 258.289 126.84 258.139 126.836 257.957L125.847 217.439C125.842 217.246 125.685 217.096 125.494 217.096C125.491 217.096 125.488 217.096 125.485 217.096C125.29 217.1 125.136 217.261 125.14 217.457L125.758 242.791C124.665 242.827 105.834 243.441 105.72 243.445C105.684 243.449 105.646 243.456 105.611 243.466C101.349 244.995 91.0202 248.328 85.9084 249.317L81.3712 228.901C81.3648 228.872 81.3551 228.844 81.3423 228.819L77.3895 220.915C77.302 220.74 77.0905 220.668 76.9155 220.757C76.7408 220.843 76.6701 221.054 76.7573 221.229L80.6908 229.097L85.2922 249.806C85.329 249.971 85.4748 250.081 85.6373 250.081C85.6583 250.081 85.6791 250.081 85.7005 250.078C90.723 249.167 101.474 245.699 105.85 244.134L105.839 244.102C106.795 244.117 110.517 243.999 125.776 243.495L126.129 257.971C126.134 258.16 126.286 258.31 126.472 258.314L107.013 260.246C106.978 260.25 106.944 260.261 106.912 260.271L88.795 267.851C88.6196 267.922 88.5339 268.122 88.6004 268.301L93.5365 281.462C80.6419 283.955 68.4669 287.638 57.8364 293.535L40.0929 298.139C39.9039 298.185 39.7903 298.378 39.8396 298.567Z" fill="white"/>
<path d="M240.54 239.174C240.351 239.124 240.159 239.238 240.112 239.428C240.065 239.617 240.18 239.81 240.369 239.856L258.195 244.314C257.571 252.532 256.496 261.322 255.916 265.487C255.889 265.68 256.024 265.858 256.217 265.887C256.234 265.891 256.25 265.891 256.266 265.891C256.44 265.891 256.591 265.762 256.616 265.587C257.194 261.43 258.263 252.693 258.891 244.478C258.894 244.478 258.898 244.482 258.901 244.482C259.059 244.482 259.203 244.375 259.244 244.214C259.291 244.025 259.176 243.832 258.987 243.785L258.943 243.775C259.339 238.381 259.532 233.277 259.253 229.934C259.237 229.738 259.067 229.591 258.872 229.613C258.677 229.627 258.532 229.798 258.549 229.991C258.823 233.277 258.636 238.288 258.248 243.6L240.54 239.174Z" fill="white"/>
</g>
<defs>
<clipPath id="clip0_1382_869">
<rect width="290.427" height="352.662" fill="white"/>
</clipPath>
</defs>
</svg>
